solid PCBMOUNT1A
facet normal -1.759486425115396e-17 -6.266746126681235e-16 -1.0
  outer loop
    vertex 49.78651243624397 154.85178720742343 1.127986593019159e-14
    vertex 52.43849343739871 148.95745081125528 1.127986593019159e-14
    vertex 52.39078959420341 148.59510414811177 1.127986593019159e-14
  endloop
endfacet
facet normal -1.759486425115396e-17 -6.266746126681235e-16 -1.0
  outer loop
    vertex 52.43849343739871 148.95745081125528 1.127986593019159e-14
    vertex 49.78651243624397 154.85178720742343 1.127986593019159e-14
    vertex 52.57835402890519 149.29510414811176 1.127986593019159e-14
  endloop
endfacet
facet normal -1.759486425115396e-17 -6.266746126681235e-16 -1.0
  outer loop
    vertex 52.57835402890519 149.29510414811176 1.127986593019159e-14
    vertex 49.78651243624397 154.85178720742343 1.127986593019159e-14
    vertex 52.80084010054224 149.58505364177296 1.127986593019159e-14
  endloop
endfacet
facet normal -1.759486425115396e-17 -6.266746126681235e-16 -1.0
  outer loop
    vertex 52.80084010054224 149.58505364177296 1.127986593019159e-14
    vertex 49.78651243624397 154.85178720742343 1.127986593019159e-14
    vertex 53.09078959420341 149.80753971341 1.127986593019159e-14
  endloop
endfacet
facet normal -1.759486425115396e-17 -6.266746126681235e-16 -1.0
  outer loop
    vertex 53.09078959420341 149.80753971341 1.127986593019159e-14
    vertex 49.78651243624397 154.85178720742343 1.127986593019159e-14
    vertex 62.786512436243946 154.85178720742343 0.0
  endloop
endfacet
facet normal -1.759486425115396e-17 -6.266746126681235e-16 -1.0
  outer loop
    vertex 53.09078959420341 149.80753971341 1.127986593019159e-14
    vertex 62.786512436243946 154.85178720742343 0.0
    vertex 53.428442931059884 149.94740030491647 1.127986593019159e-14
  endloop
endfacet
facet normal -1.759486425115396e-17 -6.266746126681235e-16 -1.0
  outer loop
    vertex 53.428442931059884 149.94740030491647 1.127986593019159e-14
    vertex 62.786512436243946 154.85178720742343 0.0
    vertex 53.7907895942034 149.99510414811178 1.127986593019159e-14
  endloop
endfacet
facet normal -1.759486425115396e-17 -6.266746126681235e-16 -1.0
  outer loop
    vertex 53.7907895942034 149.99510414811178 1.127986593019159e-14
    vertex 62.786512436243946 154.85178720742343 0.0
    vertex 54.15313625734693 149.94740030491647 1.127986593019159e-14
  endloop
endfacet
facet normal -1.759486425115396e-17 -6.266746126681235e-16 -1.0
  outer loop
    vertex 54.15313625734693 149.94740030491647 1.127986593019159e-14
    vertex 62.786512436243946 154.85178720742343 0.0
    vertex 54.490789594203406 149.80753971341 1.127986593019159e-14
  endloop
endfacet
facet normal -1.759486425115396e-17 -6.266746126681235e-16 -1.0
  outer loop
    vertex 54.490789594203406 149.80753971341 1.127986593019159e-14
    vertex 62.786512436243946 154.85178720742343 0.0
    vertex 54.780739087864575 149.58505364177296 1.127986593019159e-14
  endloop
endfacet
facet normal -1.759486425115396e-17 -6.266746126681235e-16 -1.0
  outer loop
    vertex 54.780739087864575 149.58505364177296 1.127986593019159e-14
    vertex 62.786512436243946 154.85178720742343 0.0
    vertex 55.003225159501625 149.29510414811176 1.127986593019159e-14
  endloop
endfacet
facet normal -1.759486425115396e-17 -6.266746126681235e-16 -1.0
  outer loop
    vertex 55.003225159501625 149.29510414811176 1.127986593019159e-14
    vertex 62.786512436243946 154.85178720742343 0.0
    vertex 55.1430857510081 148.95745081125528 1.127986593019159e-14
  endloop
endfacet
facet normal -1.759486425115396e-17 -6.266746126681235e-16 -1.0
  outer loop
    vertex 55.1430857510081 148.95745081125528 1.127986593019159e-14
    vertex 62.786512436243946 154.85178720742343 0.0
    vertex 55.1907895942034 148.59510414811177 1.127986593019159e-14
  endloop
endfacet
facet normal -1.759486425115396e-17 -6.266746126681235e-16 -1.0
  outer loop
    vertex 7.886512436244051 133.85178720742343 2.255973186038318e-14
    vertex 107.38651243624389 129.85178720742343 2.255973186038318e-14
    vertex 7.886512436244045 129.85178720742343 2.255973186038318e-14
  endloop
endfacet
facet normal -1.759486425115396e-17 -6.266746126681235e-16 -1.0
  outer loop
    vertex 107.38651243624389 129.85178720742343 2.255973186038318e-14
    vertex 7.886512436244051 133.85178720742343 2.255973186038318e-14
    vertex 49.78651243624396 133.85178720742343 1.127986593019159e-14
  endloop
endfacet
facet normal -1.759486425115396e-17 -6.266746126681235e-16 -1.0
  outer loop
    vertex 107.38651243624389 129.85178720742343 2.255973186038318e-14
    vertex 49.78651243624396 133.85178720742343 1.127986593019159e-14
    vertex 62.786512436243946 133.85178720742343 1.4260667002998874e-14
  endloop
endfacet
facet normal -1.759486425115396e-17 -6.266746126681235e-16 -1.0
  outer loop
    vertex 62.786512436243946 133.85178720742343 1.4260667002998874e-14
    vertex 49.78651243624396 133.85178720742343 1.127986593019159e-14
    vertex 52.57835402890519 147.89510414811178 1.127986593019159e-14
  endloop
endfacet
facet normal -1.759486425115396e-17 -6.266746126681235e-16 -1.0
  outer loop
    vertex 52.57835402890519 147.89510414811178 1.127986593019159e-14
    vertex 49.78651243624396 133.85178720742343 1.127986593019159e-14
    vertex 52.43849343739871 148.23275748496823 1.127986593019159e-14
  endloop
endfacet
facet normal -1.759486425115396e-17 -6.266746126681235e-16 -1.0
  outer loop
    vertex 52.43849343739871 148.23275748496823 1.127986593019159e-14
    vertex 49.78651243624396 133.85178720742343 1.127986593019159e-14
    vertex 49.78651243624397 154.85178720742343 1.127986593019159e-14
  endloop
endfacet
facet normal -1.759486425115396e-17 -6.266746126681235e-16 -1.0
  outer loop
    vertex 52.43849343739871 148.23275748496823 1.127986593019159e-14
    vertex 49.78651243624397 154.85178720742343 1.127986593019159e-14
    vertex 52.39078959420341 148.59510414811177 1.127986593019159e-14
  endloop
endfacet
facet normal -1.759486425115396e-17 -6.266746126681235e-16 -1.0
  outer loop
    vertex 62.786512436243946 133.85178720742343 1.4260667002998874e-14
    vertex 52.57835402890519 147.89510414811178 1.127986593019159e-14
    vertex 52.80084010054224 147.60515465445062 1.127986593019159e-14
  endloop
endfacet
facet normal -1.759486425115396e-17 -6.266746126681235e-16 -1.0
  outer loop
    vertex 62.786512436243946 133.85178720742343 1.4260667002998874e-14
    vertex 52.80084010054224 147.60515465445062 1.127986593019159e-14
    vertex 53.09078959420341 147.38266858281358 1.127986593019159e-14
  endloop
endfacet
facet normal -1.759486425115396e-17 -6.266746126681235e-16 -1.0
  outer loop
    vertex 62.786512436243946 133.85178720742343 1.4260667002998874e-14
    vertex 53.09078959420341 147.38266858281358 1.127986593019159e-14
    vertex 53.428442931059884 147.2428079913071 1.127986593019159e-14
  endloop
endfacet
facet normal -1.759486425115396e-17 -6.266746126681235e-16 -1.0
  outer loop
    vertex 62.786512436243946 133.85178720742343 1.4260667002998874e-14
    vertex 53.428442931059884 147.2428079913071 1.127986593019159e-14
    vertex 53.7907895942034 147.19510414811177 1.127986593019159e-14
  endloop
endfacet
facet normal -1.759486425115396e-17 -6.266746126681235e-16 -1.0
  outer loop
    vertex 62.786512436243946 133.85178720742343 1.4260667002998874e-14
    vertex 53.7907895942034 147.19510414811177 1.127986593019159e-14
    vertex 54.15313625734693 147.2428079913071 1.127986593019159e-14
  endloop
endfacet
facet normal -1.759486425115396e-17 -6.266746126681235e-16 -1.0
  outer loop
    vertex 62.786512436243946 133.85178720742343 1.4260667002998874e-14
    vertex 54.15313625734693 147.2428079913071 1.127986593019159e-14
    vertex 54.490789594203406 147.38266858281358 1.127986593019159e-14
  endloop
endfacet
facet normal -1.759486425115396e-17 -6.266746126681235e-16 -1.0
  outer loop
    vertex 62.786512436243946 133.85178720742343 1.4260667002998874e-14
    vertex 54.490789594203406 147.38266858281358 1.127986593019159e-14
    vertex 54.780739087864575 147.60515465445062 1.127986593019159e-14
  endloop
endfacet
facet normal -1.759486425115396e-17 -6.266746126681235e-16 -1.0
  outer loop
    vertex 62.786512436243946 133.85178720742343 1.4260667002998874e-14
    vertex 54.780739087864575 147.60515465445062 1.127986593019159e-14
    vertex 55.003225159501625 147.89510414811178 1.127986593019159e-14
  endloop
endfacet
facet normal -1.759486425115396e-17 -6.266746126681235e-16 -1.0
  outer loop
    vertex 62.786512436243946 133.85178720742343 1.4260667002998874e-14
    vertex 55.003225159501625 147.89510414811178 1.127986593019159e-14
    vertex 55.1430857510081 148.23275748496823 1.127986593019159e-14
  endloop
endfacet
facet normal -1.759486425115396e-17 -6.266746126681235e-16 -1.0
  outer loop
    vertex 62.786512436243946 133.85178720742343 1.4260667002998874e-14
    vertex 55.1430857510081 148.23275748496823 1.127986593019159e-14
    vertex 55.1907895942034 148.59510414811177 1.127986593019159e-14
  endloop
endfacet
facet normal -1.759486425115396e-17 -6.266746126681235e-16 -1.0
  outer loop
    vertex 62.786512436243946 133.85178720742343 1.4260667002998874e-14
    vertex 55.1907895942034 148.59510414811177 1.127986593019159e-14
    vertex 62.786512436243946 154.85178720742343 0.0
  endloop
endfacet
facet normal -1.759486425115396e-17 -6.266746126681235e-16 -1.0
  outer loop
    vertex 107.38651243624389 129.85178720742343 2.255973186038318e-14
    vertex 62.786512436243946 133.85178720742343 1.4260667002998874e-14
    vertex 107.38651243624389 133.85178720742343 2.255973186038318e-14
  endloop
endfacet
facet normal -1.0 2.4171141278982024e-15 -1.7671579917096804e-32
  outer loop
    vertex 7.886512436244045 129.85178720742348 57.00000000000004
    vertex 7.886512436244051 133.85178720742343 2.255973186038318e-14
    vertex 7.886512436244045 129.85178720742343 2.255973186038318e-14
  endloop
endfacet
facet normal -1.0 2.4171141278982024e-15 -1.7671579917096804e-32
  outer loop
    vertex 7.886512436244051 133.85178720742343 2.255973186038318e-14
    vertex 7.886512436244045 129.85178720742348 57.00000000000004
    vertex 7.886512436244051 133.85178720742348 57.00000000000004
  endloop
endfacet
facet normal 0.0 -1.0 5.620124592728506e-16
  outer loop
    vertex 107.38651243624389 129.85178720742348 57.00000000000004
    vertex 7.886512436244045 129.85178720742343 2.255973186038318e-14
    vertex 107.38651243624389 129.85178720742343 2.255973186038318e-14
  endloop
endfacet
facet normal 0.0 -1.0 5.620124592728506e-16
  outer loop
    vertex 7.886512436244045 129.85178720742343 2.255973186038318e-14
    vertex 107.38651243624389 129.85178720742348 57.00000000000004
    vertex 7.886512436244045 129.85178720742348 57.00000000000004
  endloop
endfacet
facet normal 1.0 0.0 -1.472464566682531e-17
  outer loop
    vertex 107.38651243624389 133.85178720742343 2.255973186038318e-14
    vertex 107.38651243624389 129.85178720742348 57.00000000000004
    vertex 107.38651243624389 129.85178720742343 2.255973186038318e-14
  endloop
endfacet
facet normal 1.0 0.0 -1.472464566682531e-17
  outer loop
    vertex 107.38651243624389 129.85178720742348 57.00000000000004
    vertex 107.38651243624389 133.85178720742343 2.255973186038318e-14
    vertex 107.38651243624389 133.85178720742348 57.00000000000004
  endloop
endfacet
facet normal -1.3173217669088704e-19 1.0 -1.2000857318237012e-15
  outer loop
    vertex 7.886512436244051 133.85178720742343 2.255973186038318e-14
    vertex 49.78651243624396 133.85178720742343 5.0000000000000115
    vertex 49.78651243624396 133.85178720742343 1.127986593019159e-14
  endloop
endfacet
facet normal -1.3173217669088704e-19 1.0 -1.2000857318237012e-15
  outer loop
    vertex 49.78651243624396 133.85178720742343 5.0000000000000115
    vertex 7.886512436244051 133.85178720742343 2.255973186038318e-14
    vertex 11.58651243624405 133.85178720742343 5.000000000000016
  endloop
endfacet
facet normal -1.3173217669088704e-19 1.0 -1.2000857318237012e-15
  outer loop
    vertex 11.58651243624405 133.85178720742343 5.000000000000016
    vertex 7.886512436244051 133.85178720742343 2.255973186038318e-14
    vertex 7.886512436244051 133.85178720742348 57.00000000000004
  endloop
endfacet
facet normal -1.3173217669088704e-19 1.0 -1.2000857318237012e-15
  outer loop
    vertex 11.58651243624405 133.85178720742343 5.000000000000016
    vertex 7.886512436244051 133.85178720742348 57.00000000000004
    vertex 11.586512436244051 133.85178720742348 54.000000000000036
  endloop
endfacet
facet normal -1.3173217669088704e-19 1.0 -1.2000857318237012e-15
  outer loop
    vertex 11.586512436244051 133.85178720742348 54.000000000000036
    vertex 7.886512436244051 133.85178720742348 57.00000000000004
    vertex 103.68651243624389 133.85178720742348 54.000000000000036
  endloop
endfacet
facet normal -1.3173217669088704e-19 1.0 -1.2000857318237012e-15
  outer loop
    vertex 62.786512436243946 133.85178720742343 5.000000000000016
    vertex 107.38651243624389 133.85178720742343 2.255973186038318e-14
    vertex 62.786512436243946 133.85178720742343 1.4260667002998874e-14
  endloop
endfacet
facet normal -1.3173217669088704e-19 1.0 -1.2000857318237012e-15
  outer loop
    vertex 107.38651243624389 133.85178720742343 2.255973186038318e-14
    vertex 62.786512436243946 133.85178720742343 5.000000000000016
    vertex 103.68651243624389 133.85178720742343 5.000000000000016
  endloop
endfacet
facet normal -1.3173217669088704e-19 1.0 -1.2000857318237012e-15
  outer loop
    vertex 107.38651243624389 133.85178720742343 2.255973186038318e-14
    vertex 103.68651243624389 133.85178720742343 5.000000000000016
    vertex 107.38651243624389 133.85178720742348 57.00000000000004
  endloop
endfacet
facet normal -1.3173217669088704e-19 1.0 -1.2000857318237012e-15
  outer loop
    vertex 107.38651243624389 133.85178720742348 57.00000000000004
    vertex 103.68651243624389 133.85178720742343 5.000000000000016
    vertex 103.68651243624389 133.85178720742348 54.000000000000036
  endloop
endfacet
facet normal -1.3173217669088704e-19 1.0 -1.2000857318237012e-15
  outer loop
    vertex 107.38651243624389 133.85178720742348 57.00000000000004
    vertex 103.68651243624389 133.85178720742348 54.000000000000036
    vertex 7.886512436244051 133.85178720742348 57.00000000000004
  endloop
endfacet
facet normal -7.924281489618785e-31 1.0 -5.620124592728506e-16
  outer loop
    vertex 49.78651243624397 154.85178720742343 1.127986593019159e-14
    vertex 62.786512436243946 154.85178720742343 5.0
    vertex 62.786512436243946 154.85178720742343 0.0
  endloop
endfacet
facet normal -7.924281489618785e-31 1.0 -5.620124592728506e-16
  outer loop
    vertex 62.786512436243946 154.85178720742343 5.0
    vertex 49.78651243624397 154.85178720742343 1.127986593019159e-14
    vertex 49.78651243624397 154.85178720742343 5.0000000000000115
  endloop
endfacet
facet normal -1.0 5.371364728662661e-16 0.0
  outer loop
    vertex 49.78651243624397 154.85178720742343 5.0000000000000115
    vertex 49.78651243624396 133.85178720742343 1.127986593019159e-14
    vertex 49.78651243624396 133.85178720742343 5.0000000000000115
  endloop
endfacet
facet normal -1.0 5.371364728662661e-16 0.0
  outer loop
    vertex 49.78651243624396 133.85178720742343 1.127986593019159e-14
    vertex 49.78651243624397 154.85178720742343 5.0000000000000115
    vertex 49.78651243624397 154.85178720742343 1.127986593019159e-14
  endloop
endfacet
facet normal -0.9914448613738098 0.13052619222005618 -5.87586720071905e-17
  outer loop
    vertex 55.1907895942034 148.59510414811177 5.0000000000000115
    vertex 55.1430857510081 148.23275748496823 1.127986593019159e-14
    vertex 55.1430857510081 148.23275748496823 5.0000000000000115
  endloop
endfacet
facet normal -0.9914448613738098 0.13052619222005618 -5.87586720071905e-17
  outer loop
    vertex 55.1430857510081 148.23275748496823 1.127986593019159e-14
    vertex 55.1907895942034 148.59510414811177 5.0000000000000115
    vertex 55.1907895942034 148.59510414811177 1.127986593019159e-14
  endloop
endfacet
facet normal -0.9238795325112933 0.38268343236507407 -2.0146905819140986e-16
  outer loop
    vertex 55.1430857510081 148.23275748496823 5.0000000000000115
    vertex 55.003225159501625 147.89510414811178 1.127986593019159e-14
    vertex 55.003225159501625 147.89510414811178 5.0000000000000115
  endloop
endfacet
facet normal -0.9238795325112933 0.38268343236507407 -2.0146905819140986e-16
  outer loop
    vertex 55.003225159501625 147.89510414811178 1.127986593019159e-14
    vertex 55.1430857510081 148.23275748496823 5.0000000000000115
    vertex 55.1430857510081 148.23275748496823 1.127986593019159e-14
  endloop
endfacet
facet normal -0.7933533402912232 0.6087614290087364 -3.3044966100327427e-16
  outer loop
    vertex 55.003225159501625 147.89510414811178 5.0000000000000115
    vertex 54.780739087864575 147.60515465445062 1.127986593019159e-14
    vertex 54.780739087864575 147.60515465445062 5.0000000000000115
  endloop
endfacet
facet normal -0.7933533402912232 0.6087614290087364 -3.3044966100327427e-16
  outer loop
    vertex 54.780739087864575 147.60515465445062 1.127986593019159e-14
    vertex 55.003225159501625 147.89510414811178 5.0000000000000115
    vertex 55.003225159501625 147.89510414811178 1.127986593019159e-14
  endloop
endfacet
facet normal -0.6087614290087021 0.7933533402912495 -4.3691066551163247e-16
  outer loop
    vertex 54.490789594203406 147.38266858281358 5.0000000000000115
    vertex 54.780739087864575 147.60515465445062 1.127986593019159e-14
    vertex 54.490789594203406 147.38266858281358 1.127986593019159e-14
  endloop
endfacet
facet normal -0.6087614290087021 0.7933533402912495 -4.3691066551163247e-16
  outer loop
    vertex 54.780739087864575 147.60515465445062 1.127986593019159e-14
    vertex 54.490789594203406 147.38266858281358 5.0000000000000115
    vertex 54.780739087864575 147.60515465445062 5.0000000000000115
  endloop
endfacet
facet normal -0.38268343236510055 0.9238795325112825 -5.135969301943768e-16
  outer loop
    vertex 54.15313625734693 147.2428079913071 5.0000000000000115
    vertex 54.490789594203406 147.38266858281358 1.127986593019159e-14
    vertex 54.15313625734693 147.2428079913071 1.127986593019159e-14
  endloop
endfacet
facet normal -0.38268343236510055 0.9238795325112825 -5.135969301943768e-16
  outer loop
    vertex 54.490789594203406 147.38266858281358 1.127986593019159e-14
    vertex 54.15313625734693 147.2428079913071 5.0000000000000115
    vertex 54.490789594203406 147.38266858281358 5.0000000000000115
  endloop
endfacet
facet normal -0.13052619222008652 0.9914448613738058 -5.552824128434423e-16
  outer loop
    vertex 53.7907895942034 147.19510414811177 5.0000000000000115
    vertex 54.15313625734693 147.2428079913071 1.127986593019159e-14
    vertex 53.7907895942034 147.19510414811177 1.127986593019159e-14
  endloop
endfacet
facet normal -0.13052619222008652 0.9914448613738058 -5.552824128434423e-16
  outer loop
    vertex 54.15313625734693 147.2428079913071 1.127986593019159e-14
    vertex 53.7907895942034 147.19510414811177 5.0000000000000115
    vertex 54.15313625734693 147.2428079913071 5.0000000000000115
  endloop
endfacet
facet normal 0.13052619222008652 0.9914448613738058 -5.591263167048037e-16
  outer loop
    vertex 53.428442931059884 147.2428079913071 5.0000000000000115
    vertex 53.7907895942034 147.19510414811177 1.127986593019159e-14
    vertex 53.428442931059884 147.2428079913071 1.127986593019159e-14
  endloop
endfacet
facet normal 0.13052619222008652 0.9914448613738058 -5.591263167048037e-16
  outer loop
    vertex 53.7907895942034 147.19510414811177 1.127986593019159e-14
    vertex 53.428442931059884 147.2428079913071 5.0000000000000115
    vertex 53.7907895942034 147.19510414811177 5.0000000000000115
  endloop
endfacet
facet normal 0.38268343236510055 0.9238795325112825 -5.24866686082658e-16
  outer loop
    vertex 53.09078959420341 147.38266858281358 5.0000000000000115
    vertex 53.428442931059884 147.2428079913071 1.127986593019159e-14
    vertex 53.09078959420341 147.38266858281358 1.127986593019159e-14
  endloop
endfacet
facet normal 0.38268343236510055 0.9238795325112825 -5.24866686082658e-16
  outer loop
    vertex 53.428442931059884 147.2428079913071 1.127986593019159e-14
    vertex 53.09078959420341 147.38266858281358 5.0000000000000115
    vertex 53.428442931059884 147.2428079913071 5.0000000000000115
  endloop
endfacet
facet normal 0.6087614290087021 0.7933533402912495 -4.548382581871991e-16
  outer loop
    vertex 52.80084010054224 147.60515465445062 5.0000000000000115
    vertex 53.09078959420341 147.38266858281358 1.127986593019159e-14
    vertex 52.80084010054224 147.60515465445062 1.127986593019159e-14
  endloop
endfacet
facet normal 0.6087614290087021 0.7933533402912495 -4.548382581871991e-16
  outer loop
    vertex 53.09078959420341 147.38266858281358 1.127986593019159e-14
    vertex 52.80084010054224 147.60515465445062 5.0000000000000115
    vertex 53.09078959420341 147.38266858281358 5.0000000000000115
  endloop
endfacet
facet normal 0.7933533402912232 0.6087614290087364 -3.5381335465203534e-16
  outer loop
    vertex 52.57835402890519 147.89510414811178 1.127986593019159e-14
    vertex 52.80084010054224 147.60515465445062 5.0000000000000115
    vertex 52.80084010054224 147.60515465445062 1.127986593019159e-14
  endloop
endfacet
facet normal 0.7933533402912232 0.6087614290087364 -3.5381335465203534e-16
  outer loop
    vertex 52.80084010054224 147.60515465445062 5.0000000000000115
    vertex 52.57835402890519 147.89510414811178 1.127986593019159e-14
    vertex 52.57835402890519 147.89510414811178 5.0000000000000115
  endloop
endfacet
facet normal 0.9238795325112933 0.38268343236507407 -2.286766557015319e-16
  outer loop
    vertex 52.43849343739871 148.23275748496823 1.127986593019159e-14
    vertex 52.57835402890519 147.89510414811178 5.0000000000000115
    vertex 52.57835402890519 147.89510414811178 1.127986593019159e-14
  endloop
endfacet
facet normal 0.9238795325112933 0.38268343236507407 -2.286766557015319e-16
  outer loop
    vertex 52.57835402890519 147.89510414811178 5.0000000000000115
    vertex 52.43849343739871 148.23275748496823 1.127986593019159e-14
    vertex 52.43849343739871 148.23275748496823 5.0000000000000115
  endloop
endfacet
facet normal 0.9914448613738098 0.13052619222005618 -8.795602057103869e-17
  outer loop
    vertex 52.39078959420341 148.59510414811177 1.127986593019159e-14
    vertex 52.43849343739871 148.23275748496823 5.0000000000000115
    vertex 52.43849343739871 148.23275748496823 1.127986593019159e-14
  endloop
endfacet
facet normal 0.9914448613738098 0.13052619222005618 -8.795602057103869e-17
  outer loop
    vertex 52.43849343739871 148.23275748496823 5.0000000000000115
    vertex 52.39078959420341 148.59510414811177 1.127986593019159e-14
    vertex 52.39078959420341 148.59510414811177 5.0000000000000115
  endloop
endfacet
facet normal 0.9914448613738098 -0.13052619222005618 5.87586720071905e-17
  outer loop
    vertex 52.43849343739871 148.95745081125528 1.127986593019159e-14
    vertex 52.39078959420341 148.59510414811177 5.0000000000000115
    vertex 52.39078959420341 148.59510414811177 1.127986593019159e-14
  endloop
endfacet
facet normal 0.9914448613738098 -0.13052619222005618 5.87586720071905e-17
  outer loop
    vertex 52.39078959420341 148.59510414811177 5.0000000000000115
    vertex 52.43849343739871 148.95745081125528 1.127986593019159e-14
    vertex 52.43849343739871 148.95745081125528 5.0000000000000115
  endloop
endfacet
facet normal 0.9238795325112933 -0.38268343236507407 2.0146905819140986e-16
  outer loop
    vertex 52.57835402890519 149.29510414811176 1.127986593019159e-14
    vertex 52.43849343739871 148.95745081125528 5.0000000000000115
    vertex 52.43849343739871 148.95745081125528 1.127986593019159e-14
  endloop
endfacet
facet normal 0.9238795325112933 -0.38268343236507407 2.0146905819140986e-16
  outer loop
    vertex 52.43849343739871 148.95745081125528 5.0000000000000115
    vertex 52.57835402890519 149.29510414811176 1.127986593019159e-14
    vertex 52.57835402890519 149.29510414811176 5.0000000000000115
  endloop
endfacet
facet normal 0.7933533402912459 -0.6087614290087066 3.3044966100325716e-16
  outer loop
    vertex 52.80084010054224 149.58505364177296 1.127986593019159e-14
    vertex 52.57835402890519 149.29510414811176 5.0000000000000115
    vertex 52.57835402890519 149.29510414811176 1.127986593019159e-14
  endloop
endfacet
facet normal 0.7933533402912459 -0.6087614290087066 3.3044966100325716e-16
  outer loop
    vertex 52.57835402890519 149.29510414811176 5.0000000000000115
    vertex 52.80084010054224 149.58505364177296 1.127986593019159e-14
    vertex 52.80084010054224 149.58505364177296 5.0000000000000115
  endloop
endfacet
facet normal 0.6087614290087021 -0.7933533402912495 4.3691066551163247e-16
  outer loop
    vertex 53.09078959420341 149.80753971341 5.0000000000000115
    vertex 52.80084010054224 149.58505364177296 1.127986593019159e-14
    vertex 53.09078959420341 149.80753971341 1.127986593019159e-14
  endloop
endfacet
facet normal 0.6087614290087021 -0.7933533402912495 4.3691066551163247e-16
  outer loop
    vertex 52.80084010054224 149.58505364177296 1.127986593019159e-14
    vertex 53.09078959420341 149.80753971341 5.0000000000000115
    vertex 52.80084010054224 149.58505364177296 5.0000000000000115
  endloop
endfacet
facet normal 0.38268343236510055 -0.9238795325112825 5.135969301943768e-16
  outer loop
    vertex 53.428442931059884 149.94740030491647 5.0000000000000115
    vertex 53.09078959420341 149.80753971341 1.127986593019159e-14
    vertex 53.428442931059884 149.94740030491647 1.127986593019159e-14
  endloop
endfacet
facet normal 0.38268343236510055 -0.9238795325112825 5.135969301943768e-16
  outer loop
    vertex 53.09078959420341 149.80753971341 1.127986593019159e-14
    vertex 53.428442931059884 149.94740030491647 5.0000000000000115
    vertex 53.09078959420341 149.80753971341 5.0000000000000115
  endloop
endfacet
facet normal 0.13052619222002584 -0.9914448613738139 5.552824128434477e-16
  outer loop
    vertex 53.7907895942034 149.99510414811178 5.0000000000000115
    vertex 53.428442931059884 149.94740030491647 1.127986593019159e-14
    vertex 53.7907895942034 149.99510414811178 1.127986593019159e-14
  endloop
endfacet
facet normal 0.13052619222002584 -0.9914448613738139 5.552824128434477e-16
  outer loop
    vertex 53.428442931059884 149.94740030491647 1.127986593019159e-14
    vertex 53.7907895942034 149.99510414811178 5.0000000000000115
    vertex 53.428442931059884 149.94740030491647 5.0000000000000115
  endloop
endfacet
facet normal -0.13052619222002584 -0.9914448613738139 5.591263167048074e-16
  outer loop
    vertex 54.15313625734693 149.94740030491647 5.0000000000000115
    vertex 53.7907895942034 149.99510414811178 1.127986593019159e-14
    vertex 54.15313625734693 149.94740030491647 1.127986593019159e-14
  endloop
endfacet
facet normal -0.13052619222002584 -0.9914448613738139 5.591263167048074e-16
  outer loop
    vertex 53.7907895942034 149.99510414811178 1.127986593019159e-14
    vertex 54.15313625734693 149.94740030491647 5.0000000000000115
    vertex 53.7907895942034 149.99510414811178 5.0000000000000115
  endloop
endfacet
facet normal -0.38268343236510055 -0.9238795325112825 5.24866686082658e-16
  outer loop
    vertex 54.490789594203406 149.80753971341 5.0000000000000115
    vertex 54.15313625734693 149.94740030491647 1.127986593019159e-14
    vertex 54.490789594203406 149.80753971341 1.127986593019159e-14
  endloop
endfacet
facet normal -0.38268343236510055 -0.9238795325112825 5.24866686082658e-16
  outer loop
    vertex 54.15313625734693 149.94740030491647 1.127986593019159e-14
    vertex 54.490789594203406 149.80753971341 5.0000000000000115
    vertex 54.15313625734693 149.94740030491647 5.0000000000000115
  endloop
endfacet
facet normal -0.6087614290087021 -0.7933533402912495 4.548382581871991e-16
  outer loop
    vertex 54.780739087864575 149.58505364177296 5.0000000000000115
    vertex 54.490789594203406 149.80753971341 1.127986593019159e-14
    vertex 54.780739087864575 149.58505364177296 1.127986593019159e-14
  endloop
endfacet
facet normal -0.6087614290087021 -0.7933533402912495 4.548382581871991e-16
  outer loop
    vertex 54.490789594203406 149.80753971341 1.127986593019159e-14
    vertex 54.780739087864575 149.58505364177296 5.0000000000000115
    vertex 54.490789594203406 149.80753971341 5.0000000000000115
  endloop
endfacet
facet normal -0.7933533402912459 -0.6087614290087066 3.538133546520189e-16
  outer loop
    vertex 54.780739087864575 149.58505364177296 5.0000000000000115
    vertex 55.003225159501625 149.29510414811176 1.127986593019159e-14
    vertex 55.003225159501625 149.29510414811176 5.0000000000000115
  endloop
endfacet
facet normal -0.7933533402912459 -0.6087614290087066 3.538133546520189e-16
  outer loop
    vertex 55.003225159501625 149.29510414811176 1.127986593019159e-14
    vertex 54.780739087864575 149.58505364177296 5.0000000000000115
    vertex 54.780739087864575 149.58505364177296 1.127986593019159e-14
  endloop
endfacet
facet normal -0.9238795325112933 -0.38268343236507407 2.286766557015319e-16
  outer loop
    vertex 55.003225159501625 149.29510414811176 5.0000000000000115
    vertex 55.1430857510081 148.95745081125528 1.127986593019159e-14
    vertex 55.1430857510081 148.95745081125528 5.0000000000000115
  endloop
endfacet
facet normal -0.9238795325112933 -0.38268343236507407 2.286766557015319e-16
  outer loop
    vertex 55.1430857510081 148.95745081125528 1.127986593019159e-14
    vertex 55.003225159501625 149.29510414811176 5.0000000000000115
    vertex 55.003225159501625 149.29510414811176 1.127986593019159e-14
  endloop
endfacet
facet normal -0.9914448613738098 -0.13052619222005618 8.795602057103869e-17
  outer loop
    vertex 55.1430857510081 148.95745081125528 5.0000000000000115
    vertex 55.1907895942034 148.59510414811177 1.127986593019159e-14
    vertex 55.1907895942034 148.59510414811177 5.0000000000000115
  endloop
endfacet
facet normal -0.9914448613738098 -0.13052619222005618 8.795602057103869e-17
  outer loop
    vertex 55.1907895942034 148.59510414811177 1.127986593019159e-14
    vertex 55.1430857510081 148.95745081125528 5.0000000000000115
    vertex 55.1430857510081 148.95745081125528 1.127986593019159e-14
  endloop
endfacet
facet normal 1.0 0.0 0.0
  outer loop
    vertex 62.786512436243946 154.85178720742343 0.0
    vertex 62.786512436243946 133.85178720742343 5.000000000000016
    vertex 62.786512436243946 133.85178720742343 1.4260667002998874e-14
  endloop
endfacet
facet normal 1.0 0.0 0.0
  outer loop
    vertex 62.786512436243946 133.85178720742343 5.000000000000016
    vertex 62.786512436243946 154.85178720742343 0.0
    vertex 62.786512436243946 154.85178720742343 5.0
  endloop
endfacet
facet normal -5.395304711108722e-18 1.0989529168530533e-15 1.0
  outer loop
    vertex 107.38651243624389 129.85178720742348 57.00000000000004
    vertex 7.886512436244051 133.85178720742348 57.00000000000004
    vertex 7.886512436244045 129.85178720742348 57.00000000000004
  endloop
endfacet
facet normal -5.395304711108722e-18 1.0989529168530533e-15 1.0
  outer loop
    vertex 7.886512436244051 133.85178720742348 57.00000000000004
    vertex 107.38651243624389 129.85178720742348 57.00000000000004
    vertex 107.38651243624389 133.85178720742348 57.00000000000004
  endloop
endfacet
facet normal 0.0 1.0 -1.3812080730846838e-15
  outer loop
    vertex 11.586512436244051 130.7517872074235 54.000000000000036
    vertex 103.68651243624389 130.75178720742343 5.000000000000016
    vertex 11.58651243624405 130.75178720742343 5.000000000000016
  endloop
endfacet
facet normal 0.0 1.0 -1.3812080730846838e-15
  outer loop
    vertex 103.68651243624389 130.75178720742343 5.000000000000016
    vertex 11.586512436244051 130.7517872074235 54.000000000000036
    vertex 103.68651243624389 130.7517872074235 54.000000000000036
  endloop
endfacet
facet normal 0.0 -1.3812080730846838e-15 -1.0
  outer loop
    vertex 103.68651243624389 133.85178720742348 54.000000000000036
    vertex 11.586512436244051 130.7517872074235 54.000000000000036
    vertex 11.586512436244051 133.85178720742348 54.000000000000036
  endloop
endfacet
facet normal 0.0 -1.3812080730846838e-15 -1.0
  outer loop
    vertex 11.586512436244051 130.7517872074235 54.000000000000036
    vertex 103.68651243624389 133.85178720742348 54.000000000000036
    vertex 103.68651243624389 130.7517872074235 54.000000000000036
  endloop
endfacet
facet normal -1.0 -0.0 -0.0
  outer loop
    vertex 103.68651243624389 130.7517872074235 54.000000000000036
    vertex 103.68651243624389 133.85178720742343 5.000000000000016
    vertex 103.68651243624389 130.75178720742343 5.000000000000016
  endloop
endfacet
facet normal -1.0 -0.0 -0.0
  outer loop
    vertex 103.68651243624389 133.85178720742343 5.000000000000016
    vertex 103.68651243624389 130.7517872074235 54.000000000000036
    vertex 103.68651243624389 133.85178720742348 54.000000000000036
  endloop
endfacet
facet normal 1.887281540647642e-18 4.420839589375056e-16 1.0
  outer loop
    vertex 103.68651243624389 130.75178720742343 5.000000000000016
    vertex 11.58651243624405 133.85178720742343 5.000000000000016
    vertex 11.58651243624405 130.75178720742343 5.000000000000016
  endloop
endfacet
facet normal 1.887281540647642e-18 4.420839589375056e-16 1.0
  outer loop
    vertex 11.58651243624405 133.85178720742343 5.000000000000016
    vertex 103.68651243624389 130.75178720742343 5.000000000000016
    vertex 49.78651243624396 133.85178720742343 5.0000000000000115
  endloop
endfacet
facet normal 1.887281540647642e-18 4.420839589375056e-16 1.0
  outer loop
    vertex 49.78651243624396 133.85178720742343 5.0000000000000115
    vertex 103.68651243624389 130.75178720742343 5.000000000000016
    vertex 62.786512436243946 133.85178720742343 5.000000000000016
  endloop
endfacet
facet normal 1.887281540647642e-18 4.420839589375056e-16 1.0
  outer loop
    vertex 49.78651243624396 133.85178720742343 5.0000000000000115
    vertex 62.786512436243946 133.85178720742343 5.000000000000016
    vertex 52.57835402890519 147.89510414811178 5.0000000000000115
  endloop
endfacet
facet normal 1.887281540647642e-18 4.420839589375056e-16 1.0
  outer loop
    vertex 49.78651243624396 133.85178720742343 5.0000000000000115
    vertex 52.57835402890519 147.89510414811178 5.0000000000000115
    vertex 52.43849343739871 148.23275748496823 5.0000000000000115
  endloop
endfacet
facet normal 1.887281540647642e-18 4.420839589375056e-16 1.0
  outer loop
    vertex 49.78651243624396 133.85178720742343 5.0000000000000115
    vertex 52.43849343739871 148.23275748496823 5.0000000000000115
    vertex 49.78651243624397 154.85178720742343 5.0000000000000115
  endloop
endfacet
facet normal 1.887281540647642e-18 4.420839589375056e-16 1.0
  outer loop
    vertex 49.78651243624397 154.85178720742343 5.0000000000000115
    vertex 52.43849343739871 148.23275748496823 5.0000000000000115
    vertex 52.39078959420341 148.59510414811177 5.0000000000000115
  endloop
endfacet
facet normal 1.887281540647642e-18 4.420839589375056e-16 1.0
  outer loop
    vertex 52.57835402890519 147.89510414811178 5.0000000000000115
    vertex 62.786512436243946 133.85178720742343 5.000000000000016
    vertex 52.80084010054224 147.60515465445062 5.0000000000000115
  endloop
endfacet
facet normal 1.887281540647642e-18 4.420839589375056e-16 1.0
  outer loop
    vertex 52.80084010054224 147.60515465445062 5.0000000000000115
    vertex 62.786512436243946 133.85178720742343 5.000000000000016
    vertex 53.09078959420341 147.38266858281358 5.0000000000000115
  endloop
endfacet
facet normal 1.887281540647642e-18 4.420839589375056e-16 1.0
  outer loop
    vertex 53.09078959420341 147.38266858281358 5.0000000000000115
    vertex 62.786512436243946 133.85178720742343 5.000000000000016
    vertex 53.428442931059884 147.2428079913071 5.0000000000000115
  endloop
endfacet
facet normal 1.887281540647642e-18 4.420839589375056e-16 1.0
  outer loop
    vertex 53.428442931059884 147.2428079913071 5.0000000000000115
    vertex 62.786512436243946 133.85178720742343 5.000000000000016
    vertex 53.7907895942034 147.19510414811177 5.0000000000000115
  endloop
endfacet
facet normal 1.887281540647642e-18 4.420839589375056e-16 1.0
  outer loop
    vertex 53.7907895942034 147.19510414811177 5.0000000000000115
    vertex 62.786512436243946 133.85178720742343 5.000000000000016
    vertex 54.15313625734693 147.2428079913071 5.0000000000000115
  endloop
endfacet
facet normal 1.887281540647642e-18 4.420839589375056e-16 1.0
  outer loop
    vertex 54.15313625734693 147.2428079913071 5.0000000000000115
    vertex 62.786512436243946 133.85178720742343 5.000000000000016
    vertex 54.490789594203406 147.38266858281358 5.0000000000000115
  endloop
endfacet
facet normal 1.887281540647642e-18 4.420839589375056e-16 1.0
  outer loop
    vertex 54.490789594203406 147.38266858281358 5.0000000000000115
    vertex 62.786512436243946 133.85178720742343 5.000000000000016
    vertex 54.780739087864575 147.60515465445062 5.0000000000000115
  endloop
endfacet
facet normal 1.887281540647642e-18 4.420839589375056e-16 1.0
  outer loop
    vertex 54.780739087864575 147.60515465445062 5.0000000000000115
    vertex 62.786512436243946 133.85178720742343 5.000000000000016
    vertex 55.003225159501625 147.89510414811178 5.0000000000000115
  endloop
endfacet
facet normal 1.887281540647642e-18 4.420839589375056e-16 1.0
  outer loop
    vertex 55.003225159501625 147.89510414811178 5.0000000000000115
    vertex 62.786512436243946 133.85178720742343 5.000000000000016
    vertex 55.1430857510081 148.23275748496823 5.0000000000000115
  endloop
endfacet
facet normal 1.887281540647642e-18 4.420839589375056e-16 1.0
  outer loop
    vertex 55.1430857510081 148.23275748496823 5.0000000000000115
    vertex 62.786512436243946 133.85178720742343 5.000000000000016
    vertex 55.1907895942034 148.59510414811177 5.0000000000000115
  endloop
endfacet
facet normal 1.887281540647642e-18 4.420839589375056e-16 1.0
  outer loop
    vertex 62.786512436243946 133.85178720742343 5.000000000000016
    vertex 103.68651243624389 130.75178720742343 5.000000000000016
    vertex 103.68651243624389 133.85178720742343 5.000000000000016
  endloop
endfacet
facet normal 1.887281540647642e-18 4.420839589375056e-16 1.0
  outer loop
    vertex 49.78651243624397 154.85178720742343 5.0000000000000115
    vertex 53.09078959420341 149.80753971341 5.0000000000000115
    vertex 62.786512436243946 154.85178720742343 5.0
  endloop
endfacet
facet normal 1.887281540647642e-18 4.420839589375056e-16 1.0
  outer loop
    vertex 53.09078959420341 149.80753971341 5.0000000000000115
    vertex 49.78651243624397 154.85178720742343 5.0000000000000115
    vertex 52.80084010054224 149.58505364177296 5.0000000000000115
  endloop
endfacet
facet normal 1.887281540647642e-18 4.420839589375056e-16 1.0
  outer loop
    vertex 52.80084010054224 149.58505364177296 5.0000000000000115
    vertex 49.78651243624397 154.85178720742343 5.0000000000000115
    vertex 52.57835402890519 149.29510414811176 5.0000000000000115
  endloop
endfacet
facet normal 1.887281540647642e-18 4.420839589375056e-16 1.0
  outer loop
    vertex 52.57835402890519 149.29510414811176 5.0000000000000115
    vertex 49.78651243624397 154.85178720742343 5.0000000000000115
    vertex 52.43849343739871 148.95745081125528 5.0000000000000115
  endloop
endfacet
facet normal 1.887281540647642e-18 4.420839589375056e-16 1.0
  outer loop
    vertex 52.43849343739871 148.95745081125528 5.0000000000000115
    vertex 49.78651243624397 154.85178720742343 5.0000000000000115
    vertex 52.39078959420341 148.59510414811177 5.0000000000000115
  endloop
endfacet
facet normal 1.887281540647642e-18 4.420839589375056e-16 1.0
  outer loop
    vertex 62.786512436243946 154.85178720742343 5.0
    vertex 53.09078959420341 149.80753971341 5.0000000000000115
    vertex 53.428442931059884 149.94740030491647 5.0000000000000115
  endloop
endfacet
facet normal 1.887281540647642e-18 4.420839589375056e-16 1.0
  outer loop
    vertex 62.786512436243946 154.85178720742343 5.0
    vertex 53.428442931059884 149.94740030491647 5.0000000000000115
    vertex 53.7907895942034 149.99510414811178 5.0000000000000115
  endloop
endfacet
facet normal 1.887281540647642e-18 4.420839589375056e-16 1.0
  outer loop
    vertex 62.786512436243946 154.85178720742343 5.0
    vertex 53.7907895942034 149.99510414811178 5.0000000000000115
    vertex 54.15313625734693 149.94740030491647 5.0000000000000115
  endloop
endfacet
facet normal 1.887281540647642e-18 4.420839589375056e-16 1.0
  outer loop
    vertex 62.786512436243946 154.85178720742343 5.0
    vertex 54.15313625734693 149.94740030491647 5.0000000000000115
    vertex 54.490789594203406 149.80753971341 5.0000000000000115
  endloop
endfacet
facet normal 1.887281540647642e-18 4.420839589375056e-16 1.0
  outer loop
    vertex 62.786512436243946 154.85178720742343 5.0
    vertex 54.490789594203406 149.80753971341 5.0000000000000115
    vertex 54.780739087864575 149.58505364177296 5.0000000000000115
  endloop
endfacet
facet normal 1.887281540647642e-18 4.420839589375056e-16 1.0
  outer loop
    vertex 62.786512436243946 154.85178720742343 5.0
    vertex 54.780739087864575 149.58505364177296 5.0000000000000115
    vertex 55.003225159501625 149.29510414811176 5.0000000000000115
  endloop
endfacet
facet normal 1.887281540647642e-18 4.420839589375056e-16 1.0
  outer loop
    vertex 62.786512436243946 154.85178720742343 5.0
    vertex 55.003225159501625 149.29510414811176 5.0000000000000115
    vertex 55.1430857510081 148.95745081125528 5.0000000000000115
  endloop
endfacet
facet normal 1.887281540647642e-18 4.420839589375056e-16 1.0
  outer loop
    vertex 62.786512436243946 154.85178720742343 5.0
    vertex 55.1430857510081 148.95745081125528 5.0000000000000115
    vertex 55.1907895942034 148.59510414811177 5.0000000000000115
  endloop
endfacet
facet normal 1.887281540647642e-18 4.420839589375056e-16 1.0
  outer loop
    vertex 62.786512436243946 154.85178720742343 5.0
    vertex 55.1907895942034 148.59510414811177 5.0000000000000115
    vertex 62.786512436243946 133.85178720742343 5.000000000000016
  endloop
endfacet
facet normal 1.0 -3.9744494607381363e-32 -2.877516818926425e-17
  outer loop
    vertex 11.58651243624405 133.85178720742343 5.000000000000016
    vertex 11.586512436244051 130.7517872074235 54.000000000000036
    vertex 11.58651243624405 130.75178720742343 5.000000000000016
  endloop
endfacet
facet normal 1.0 -3.9744494607381363e-32 -2.877516818926425e-17
  outer loop
    vertex 11.586512436244051 130.7517872074235 54.000000000000036
    vertex 11.58651243624405 133.85178720742343 5.000000000000016
    vertex 11.586512436244051 133.85178720742348 54.000000000000036
  endloop
endfacet
endsolid PCBMOUNT1A
