solid PCBMOUNT1A
facet normal -3.3284699563507466e-16 1.618208698281837e-15 -1.0
  outer loop
    vertex 93.49564303306397 40.40583520831833 7.500000000000038
    vertex 97.01468615438877 33.62163015896559 7.5000000000000115
    vertex 93.49564303306397 25.405835208318326 7.5
  endloop
endfacet
facet normal -3.3284699563507466e-16 1.618208698281837e-15 -1.0
  outer loop
    vertex 97.01468615438877 33.62163015896559 7.5000000000000115
    vertex 93.49564303306397 40.40583520831833 7.500000000000038
    vertex 97.24870619326134 33.96759893039742 7.5000000000000115
  endloop
endfacet
facet normal -3.3284699563507466e-16 1.618208698281837e-15 -1.0
  outer loop
    vertex 97.24870619326134 33.96759893039742 7.5000000000000115
    vertex 93.49564303306397 40.40583520831833 7.500000000000038
    vertex 103.39564303306398 40.40583520831834 7.5000000000000355
  endloop
endfacet
facet normal -3.3284699563507466e-16 1.618208698281837e-15 -1.0
  outer loop
    vertex 93.49564303306397 25.405835208318326 7.5
    vertex 97.01468615438877 33.62163015896559 7.5000000000000115
    vertex 96.87818346202988 33.22688114455422 7.500000000000009
  endloop
endfacet
facet normal -3.3284699563507466e-16 1.618208698281837e-15 -1.0
  outer loop
    vertex 93.49564303306397 25.405835208318326 7.5
    vertex 96.87818346202988 33.22688114455422 7.500000000000009
    vertex 96.84850054908753 32.81025338014188 7.500000000000009
  endloop
endfacet
facet normal -3.3284699563507466e-16 1.618208698281837e-15 -1.0
  outer loop
    vertex 97.24870619326134 33.96759893039742 7.5000000000000115
    vertex 103.39564303306398 40.40583520831834 7.5000000000000355
    vertex 97.5642954997348 34.241210258817084 7.5000000000000115
  endloop
endfacet
facet normal -3.3284699563507466e-16 1.618208698281837e-15 -1.0
  outer loop
    vertex 97.5642954997348 34.241210258817084 7.5000000000000115
    vertex 103.39564303306398 40.40583520831834 7.5000000000000355
    vertex 97.93994718410897 34.423817984356866 7.5000000000000115
  endloop
endfacet
facet normal -3.3284699563507466e-16 1.618208698281837e-15 -1.0
  outer loop
    vertex 97.93994718410897 34.423817984356866 7.5000000000000115
    vertex 103.39564303306398 40.40583520831834 7.5000000000000355
    vertex 98.35006120488752 34.50297769229477 7.5000000000000115
  endloop
endfacet
facet normal -3.3284699563507466e-16 1.618208698281837e-15 -1.0
  outer loop
    vertex 98.35006120488752 34.50297769229477 7.5000000000000115
    vertex 103.39564303306398 40.40583520831834 7.5000000000000355
    vertex 98.76668896929988 34.47329477935243 7.5000000000000115
  endloop
endfacet
facet normal -3.3284699563507466e-16 1.618208698281837e-15 -1.0
  outer loop
    vertex 98.76668896929988 34.47329477935243 7.5000000000000115
    vertex 103.39564303306398 40.40583520831834 7.5000000000000355
    vertex 99.16143798371124 34.336792086993526 7.5000000000000115
  endloop
endfacet
facet normal -3.3284699563507466e-16 1.618208698281837e-15 -1.0
  outer loop
    vertex 99.16143798371124 34.336792086993526 7.5000000000000115
    vertex 103.39564303306398 40.40583520831834 7.5000000000000355
    vertex 99.50740675514308 34.10277204812097 7.5000000000000115
  endloop
endfacet
facet normal -3.3284699563507466e-16 1.618208698281837e-15 -1.0
  outer loop
    vertex 99.50740675514308 34.10277204812097 7.5000000000000115
    vertex 103.39564303306398 40.40583520831834 7.5000000000000355
    vertex 99.78101808356273 33.787182741647506 7.5000000000000115
  endloop
endfacet
facet normal -3.3284699563507466e-16 1.618208698281837e-15 -1.0
  outer loop
    vertex 99.78101808356273 33.787182741647506 7.5000000000000115
    vertex 103.39564303306398 40.40583520831834 7.5000000000000355
    vertex 99.96362580910252 33.41153105727333 7.5000000000000115
  endloop
endfacet
facet normal -3.3284699563507466e-16 1.618208698281837e-15 -1.0
  outer loop
    vertex 99.96362580910252 33.41153105727333 7.5000000000000115
    vertex 103.39564303306398 40.40583520831834 7.5000000000000355
    vertex 100.04278551704043 33.001417036494765 7.500000000000009
  endloop
endfacet
facet normal -3.3284699563507466e-16 1.618208698281837e-15 -1.0
  outer loop
    vertex 93.49564303306397 25.405835208318326 7.5
    vertex 52.49564303306388 20.80583520831833 7.500000000000019
    vertex 52.49564303306388 25.405835208318326 7.500000000000019
  endloop
endfacet
facet normal -3.3284699563507466e-16 1.618208698281837e-15 -1.0
  outer loop
    vertex 52.49564303306388 20.80583520831833 7.500000000000019
    vertex 93.49564303306397 25.405835208318326 7.5
    vertex 120.49564303306397 20.80583520831833 7.499999999999995
  endloop
endfacet
facet normal -3.3284699563507466e-16 1.618208698281837e-15 -1.0
  outer loop
    vertex 120.49564303306397 20.80583520831833 7.499999999999995
    vertex 93.49564303306397 25.405835208318326 7.5
    vertex 103.39564303306398 28.40583520831833 7.500000000000007
  endloop
endfacet
facet normal -3.3284699563507466e-16 1.618208698281837e-15 -1.0
  outer loop
    vertex 103.39564303306398 28.40583520831833 7.500000000000007
    vertex 93.49564303306397 25.405835208318326 7.5
    vertex 97.72984808241671 31.47487832964312 7.500000000000006
  endloop
endfacet
facet normal -3.3284699563507466e-16 1.618208698281837e-15 -1.0
  outer loop
    vertex 97.72984808241671 31.47487832964312 7.500000000000006
    vertex 93.49564303306397 25.405835208318326 7.5
    vertex 97.38387931098487 31.708898368515683 7.500000000000006
  endloop
endfacet
facet normal -3.3284699563507466e-16 1.618208698281837e-15 -1.0
  outer loop
    vertex 97.38387931098487 31.708898368515683 7.500000000000006
    vertex 93.49564303306397 25.405835208318326 7.5
    vertex 97.11026798256522 32.02448767498914 7.500000000000009
  endloop
endfacet
facet normal -3.3284699563507466e-16 1.618208698281837e-15 -1.0
  outer loop
    vertex 97.11026798256522 32.02448767498914 7.500000000000009
    vertex 93.49564303306397 25.405835208318326 7.5
    vertex 96.92766025702544 32.400139359363315 7.500000000000009
  endloop
endfacet
facet normal -3.3284699563507466e-16 1.618208698281837e-15 -1.0
  outer loop
    vertex 96.92766025702544 32.400139359363315 7.500000000000009
    vertex 93.49564303306397 25.405835208318326 7.5
    vertex 96.84850054908753 32.81025338014188 7.500000000000009
  endloop
endfacet
facet normal -3.3284699563507466e-16 1.618208698281837e-15 -1.0
  outer loop
    vertex 103.39564303306398 28.40583520831833 7.500000000000007
    vertex 97.72984808241671 31.47487832964312 7.500000000000006
    vertex 98.12459709682807 31.338375637284216 7.500000000000006
  endloop
endfacet
facet normal -3.3284699563507466e-16 1.618208698281837e-15 -1.0
  outer loop
    vertex 103.39564303306398 28.40583520831833 7.500000000000007
    vertex 98.12459709682807 31.338375637284216 7.500000000000006
    vertex 98.54122486124042 31.308692724341874 7.500000000000006
  endloop
endfacet
facet normal -3.3284699563507466e-16 1.618208698281837e-15 -1.0
  outer loop
    vertex 103.39564303306398 28.40583520831833 7.500000000000007
    vertex 98.54122486124042 31.308692724341874 7.500000000000006
    vertex 98.95133888201899 31.38785243227978 7.500000000000006
  endloop
endfacet
facet normal -3.3284699563507466e-16 1.618208698281837e-15 -1.0
  outer loop
    vertex 103.39564303306398 28.40583520831833 7.500000000000007
    vertex 98.95133888201899 31.38785243227978 7.500000000000006
    vertex 99.32699056639316 31.57046015781956 7.500000000000006
  endloop
endfacet
facet normal -3.3284699563507466e-16 1.618208698281837e-15 -1.0
  outer loop
    vertex 103.39564303306398 28.40583520831833 7.500000000000007
    vertex 99.32699056639316 31.57046015781956 7.500000000000006
    vertex 99.64257987286662 31.844071486239223 7.500000000000009
  endloop
endfacet
facet normal -3.3284699563507466e-16 1.618208698281837e-15 -1.0
  outer loop
    vertex 103.39564303306398 28.40583520831833 7.500000000000007
    vertex 99.64257987286662 31.844071486239223 7.500000000000009
    vertex 99.87659991173918 32.19004025767106 7.500000000000009
  endloop
endfacet
facet normal -3.3284699563507466e-16 1.618208698281837e-15 -1.0
  outer loop
    vertex 103.39564303306398 28.40583520831833 7.500000000000007
    vertex 99.87659991173918 32.19004025767106 7.500000000000009
    vertex 100.01310260409808 32.58478927208242 7.500000000000009
  endloop
endfacet
facet normal -3.3284699563507466e-16 1.618208698281837e-15 -1.0
  outer loop
    vertex 103.39564303306398 28.40583520831833 7.500000000000007
    vertex 100.01310260409808 32.58478927208242 7.500000000000009
    vertex 100.04278551704043 33.001417036494765 7.500000000000009
  endloop
endfacet
facet normal -3.3284699563507466e-16 1.618208698281837e-15 -1.0
  outer loop
    vertex 103.39564303306398 28.40583520831833 7.500000000000007
    vertex 100.04278551704043 33.001417036494765 7.500000000000009
    vertex 103.39564303306398 40.40583520831834 7.5000000000000355
  endloop
endfacet
facet normal -3.3284699563507466e-16 1.618208698281837e-15 -1.0
  outer loop
    vertex 120.49564303306397 20.80583520831833 7.499999999999995
    vertex 103.39564303306398 28.40583520831833 7.500000000000007
    vertex 120.49564303306397 28.40583520831834 7.5000000000000036
  endloop
endfacet
facet normal 0.0 -1.0 0.0
  outer loop
    vertex 120.49564303306397 20.80583520831833 62.00000000000002
    vertex 52.49564303306388 20.80583520831833 7.500000000000019
    vertex 120.49564303306397 20.80583520831833 7.499999999999995
  endloop
endfacet
facet normal 0.0 -1.0 0.0
  outer loop
    vertex 52.49564303306388 20.80583520831833 7.500000000000019
    vertex 120.49564303306397 20.80583520831833 62.00000000000002
    vertex 52.49564303306388 20.80583520831833 62.00000000000002
  endloop
endfacet
facet normal 0.0 0.0 1.0
  outer loop
    vertex 120.49564303306397 20.80583520831833 62.00000000000002
    vertex 52.49564303306388 25.405835208318326 62.00000000000002
    vertex 52.49564303306388 20.80583520831833 62.00000000000002
  endloop
endfacet
facet normal 0.0 0.0 1.0
  outer loop
    vertex 52.49564303306388 25.405835208318326 62.00000000000002
    vertex 120.49564303306397 20.80583520831833 62.00000000000002
    vertex 120.49564303306397 25.405835208318326 62.00000000000002
  endloop
endfacet
facet normal -1.0 -0.0 -0.0
  outer loop
    vertex 52.49564303306388 25.405835208318326 62.00000000000002
    vertex 52.49564303306388 20.80583520831833 7.500000000000019
    vertex 52.49564303306388 20.80583520831833 62.00000000000002
  endloop
endfacet
facet normal -1.0 -0.0 -0.0
  outer loop
    vertex 52.49564303306388 20.80583520831833 7.500000000000019
    vertex 52.49564303306388 25.405835208318326 62.00000000000002
    vertex 52.49564303306388 25.405835208318326 7.500000000000019
  endloop
endfacet
facet normal 1.0 -0.0 -0.0
  outer loop
    vertex 120.49564303306397 20.80583520831833 7.499999999999995
    vertex 120.49564303306397 25.40583520831832 12.500000000000014
    vertex 120.49564303306397 20.80583520831833 62.00000000000002
  endloop
endfacet
facet normal 1.0 -0.0 -0.0
  outer loop
    vertex 120.49564303306397 25.40583520831832 12.500000000000014
    vertex 120.49564303306397 20.80583520831833 7.499999999999995
    vertex 120.49564303306397 28.40583520831834 7.5000000000000036
  endloop
endfacet
facet normal 1.0 -0.0 -0.0
  outer loop
    vertex 120.49564303306397 25.40583520831832 12.500000000000014
    vertex 120.49564303306397 28.40583520831834 7.5000000000000036
    vertex 120.49564303306397 28.40583520831832 12.500000000000023
  endloop
endfacet
facet normal 1.0 -0.0 -0.0
  outer loop
    vertex 120.49564303306397 25.405835208318326 62.00000000000002
    vertex 120.49564303306397 20.80583520831833 62.00000000000002
    vertex 120.49564303306397 25.40583520831832 12.500000000000014
  endloop
endfacet
facet normal -0.0 1.0 -0.0
  outer loop
    vertex 55.49564303306394 21.405835208318333 59.00000000000001
    vertex 117.49564303306397 21.405835208318333 10.500000000000012
    vertex 55.49564303306394 21.405835208318333 10.500000000000004
  endloop
endfacet
facet normal -0.0 1.0 -0.0
  outer loop
    vertex 117.49564303306397 21.405835208318333 10.500000000000012
    vertex 55.49564303306394 21.405835208318333 59.00000000000001
    vertex 117.49564303306397 21.405835208318333 59.00000000000001
  endloop
endfacet
facet normal -1.0 0.0 0.0
  outer loop
    vertex 117.49564303306397 25.405835208318326 59.00000000000001
    vertex 117.49564303306397 21.405835208318333 10.500000000000012
    vertex 117.49564303306397 21.405835208318333 59.00000000000001
  endloop
endfacet
facet normal -1.0 0.0 0.0
  outer loop
    vertex 117.49564303306397 21.405835208318333 10.500000000000012
    vertex 117.49564303306397 25.405835208318326 59.00000000000001
    vertex 117.49564303306397 25.40583520831832 12.500000000000014
  endloop
endfacet
facet normal -1.0 0.0 0.0
  outer loop
    vertex 117.49564303306397 25.405835208318326 10.500000000000012
    vertex 117.49564303306397 21.405835208318333 10.500000000000012
    vertex 117.49564303306397 25.40583520831832 12.500000000000014
  endloop
endfacet
facet normal -0.0 -0.0 -1.0
  outer loop
    vertex 117.49564303306397 25.405835208318326 59.00000000000001
    vertex 55.49564303306394 21.405835208318333 59.00000000000001
    vertex 55.49564303306394 25.405835208318326 59.00000000000001
  endloop
endfacet
facet normal -0.0 -0.0 -1.0
  outer loop
    vertex 55.49564303306394 21.405835208318333 59.00000000000001
    vertex 117.49564303306397 25.405835208318326 59.00000000000001
    vertex 117.49564303306397 21.405835208318333 59.00000000000001
  endloop
endfacet
facet normal 1.0 0.0 0.0
  outer loop
    vertex 55.49564303306394 25.405835208318326 10.500000000000004
    vertex 55.49564303306394 21.405835208318333 59.00000000000001
    vertex 55.49564303306394 21.405835208318333 10.500000000000004
  endloop
endfacet
facet normal 1.0 0.0 0.0
  outer loop
    vertex 55.49564303306394 21.405835208318333 59.00000000000001
    vertex 55.49564303306394 25.405835208318326 10.500000000000004
    vertex 55.49564303306394 25.405835208318326 59.00000000000001
  endloop
endfacet
facet normal -0.0 1.0 -0.0
  outer loop
    vertex 52.49564303306388 25.405835208318326 62.00000000000002
    vertex 55.49564303306394 25.405835208318326 10.500000000000004
    vertex 52.49564303306388 25.405835208318326 7.500000000000019
  endloop
endfacet
facet normal -0.0 1.0 -0.0
  outer loop
    vertex 55.49564303306394 25.405835208318326 10.500000000000004
    vertex 52.49564303306388 25.405835208318326 62.00000000000002
    vertex 55.49564303306394 25.405835208318326 59.00000000000001
  endloop
endfacet
facet normal -0.0 1.0 -0.0
  outer loop
    vertex 55.49564303306394 25.405835208318326 59.00000000000001
    vertex 52.49564303306388 25.405835208318326 62.00000000000002
    vertex 117.49564303306397 25.405835208318326 59.00000000000001
  endloop
endfacet
facet normal -0.0 1.0 -0.0
  outer loop
    vertex 117.49564303306397 25.405835208318326 59.00000000000001
    vertex 120.49564303306397 25.40583520831832 12.500000000000014
    vertex 117.49564303306397 25.40583520831832 12.500000000000014
  endloop
endfacet
facet normal -0.0 1.0 -0.0
  outer loop
    vertex 120.49564303306397 25.40583520831832 12.500000000000014
    vertex 117.49564303306397 25.405835208318326 59.00000000000001
    vertex 120.49564303306397 25.405835208318326 62.00000000000002
  endloop
endfacet
facet normal -0.0 1.0 -0.0
  outer loop
    vertex 120.49564303306397 25.405835208318326 62.00000000000002
    vertex 117.49564303306397 25.405835208318326 59.00000000000001
    vertex 52.49564303306388 25.405835208318326 62.00000000000002
  endloop
endfacet
facet normal -0.0 1.0 -0.0
  outer loop
    vertex 52.49564303306388 25.405835208318326 7.500000000000019
    vertex 93.49564303306397 25.405835208318326 10.500000000000009
    vertex 93.49564303306397 25.405835208318326 7.5
  endloop
endfacet
facet normal -0.0 1.0 -0.0
  outer loop
    vertex 93.49564303306397 25.405835208318326 10.500000000000009
    vertex 52.49564303306388 25.405835208318326 7.500000000000019
    vertex 55.49564303306394 25.405835208318326 10.500000000000004
  endloop
endfacet
facet normal -1.0 -2.8463213094875977e-16 0.0
  outer loop
    vertex 93.49564303306397 40.40583520831832 12.500000000000048
    vertex 93.49564303306397 25.405835208318326 10.500000000000009
    vertex 93.49564303306397 25.40583520831832 12.500000000000009
  endloop
endfacet
facet normal -1.0 -2.8463213094875977e-16 0.0
  outer loop
    vertex 93.49564303306397 25.405835208318326 10.500000000000009
    vertex 93.49564303306397 40.40583520831832 12.500000000000048
    vertex 93.49564303306397 25.405835208318326 7.5
  endloop
endfacet
facet normal -1.0 -2.8463213094875977e-16 0.0
  outer loop
    vertex 93.49564303306397 25.405835208318326 7.5
    vertex 93.49564303306397 40.40583520831832 12.500000000000048
    vertex 93.49564303306397 40.40583520831833 7.500000000000038
  endloop
endfacet
facet normal -4.956083546314348e-16 1.0 4.692239680430533e-15
  outer loop
    vertex 103.39564303306398 28.40583520831833 7.500000000000007
    vertex 120.49564303306397 28.40583520831832 12.500000000000023
    vertex 120.49564303306397 28.40583520831834 7.5000000000000036
  endloop
endfacet
facet normal -4.956083546314348e-16 1.0 4.692239680430533e-15
  outer loop
    vertex 120.49564303306397 28.40583520831832 12.500000000000023
    vertex 103.39564303306398 28.40583520831833 7.500000000000007
    vertex 103.39564303306398 28.40583520831831 12.50000000000002
  endloop
endfacet
facet normal 1.2880455977222713e-31 1.0 1.8799776550319266e-15
  outer loop
    vertex 93.49564303306397 40.40583520831833 7.500000000000038
    vertex 103.39564303306398 40.40583520831832 12.500000000000048
    vertex 103.39564303306398 40.40583520831834 7.5000000000000355
  endloop
endfacet
facet normal 1.2880455977222713e-31 1.0 1.8799776550319266e-15
  outer loop
    vertex 103.39564303306398 40.40583520831832 12.500000000000048
    vertex 93.49564303306397 40.40583520831833 7.500000000000038
    vertex 93.49564303306397 40.40583520831832 12.500000000000048
  endloop
endfacet
facet normal 1.0 -1.2880455977222715e-31 -4.842993884760216e-46
  outer loop
    vertex 103.39564303306398 28.40583520831833 7.500000000000007
    vertex 103.39564303306398 40.40583520831832 12.500000000000048
    vertex 103.39564303306398 28.40583520831831 12.50000000000002
  endloop
endfacet
facet normal 1.0 -1.2880455977222715e-31 -4.842993884760216e-46
  outer loop
    vertex 103.39564303306398 40.40583520831832 12.500000000000048
    vertex 103.39564303306398 28.40583520831833 7.500000000000007
    vertex 103.39564303306398 40.40583520831834 7.5000000000000355
  endloop
endfacet
facet normal -1.5869888760340477e-16 3.382504938223859e-17 1.0
  outer loop
    vertex 117.49564303306397 21.405835208318333 10.500000000000012
    vertex 55.49564303306394 25.405835208318326 10.500000000000004
    vertex 55.49564303306394 21.405835208318333 10.500000000000004
  endloop
endfacet
facet normal -1.5869888760340477e-16 3.382504938223859e-17 1.0
  outer loop
    vertex 55.49564303306394 25.405835208318326 10.500000000000004
    vertex 117.49564303306397 21.405835208318333 10.500000000000012
    vertex 93.49564303306397 25.405835208318326 10.500000000000009
  endloop
endfacet
facet normal -1.5869888760340477e-16 3.382504938223859e-17 1.0
  outer loop
    vertex 93.49564303306397 25.405835208318326 10.500000000000009
    vertex 117.49564303306397 21.405835208318333 10.500000000000012
    vertex 117.49564303306397 25.405835208318326 10.500000000000012
  endloop
endfacet
facet normal -1.86351353660878e-16 -2.0753732265259093e-15 1.0
  outer loop
    vertex 93.49564303306397 25.40583520831832 12.500000000000009
    vertex 96.92766025702544 32.400139359363315 12.50000000000003
    vertex 93.49564303306397 40.40583520831832 12.500000000000048
  endloop
endfacet
facet normal -1.86351353660878e-16 -2.0753732265259093e-15 1.0
  outer loop
    vertex 96.92766025702544 32.400139359363315 12.50000000000003
    vertex 93.49564303306397 25.40583520831832 12.500000000000009
    vertex 97.11026798256522 32.02448767498914 12.50000000000003
  endloop
endfacet
facet normal -1.86351353660878e-16 -2.0753732265259093e-15 1.0
  outer loop
    vertex 97.11026798256522 32.02448767498914 12.50000000000003
    vertex 93.49564303306397 25.40583520831832 12.500000000000009
    vertex 97.38387931098487 31.708898368515683 12.500000000000028
  endloop
endfacet
facet normal -1.86351353660878e-16 -2.0753732265259093e-15 1.0
  outer loop
    vertex 97.38387931098487 31.708898368515683 12.500000000000028
    vertex 93.49564303306397 25.40583520831832 12.500000000000009
    vertex 97.72984808241671 31.47487832964312 12.500000000000028
  endloop
endfacet
facet normal -1.86351353660878e-16 -2.0753732265259093e-15 1.0
  outer loop
    vertex 97.72984808241671 31.47487832964312 12.500000000000028
    vertex 93.49564303306397 25.40583520831832 12.500000000000009
    vertex 103.39564303306398 28.40583520831831 12.50000000000002
  endloop
endfacet
facet normal -1.86351353660878e-16 -2.0753732265259093e-15 1.0
  outer loop
    vertex 103.39564303306398 28.40583520831831 12.50000000000002
    vertex 93.49564303306397 25.40583520831832 12.500000000000009
    vertex 117.49564303306397 25.40583520831832 12.500000000000014
  endloop
endfacet
facet normal -1.86351353660878e-16 -2.0753732265259093e-15 1.0
  outer loop
    vertex 93.49564303306397 40.40583520831832 12.500000000000048
    vertex 96.92766025702544 32.400139359363315 12.50000000000003
    vertex 96.84850054908753 32.81025338014188 12.500000000000032
  endloop
endfacet
facet normal -1.86351353660878e-16 -2.0753732265259093e-15 1.0
  outer loop
    vertex 97.72984808241671 31.47487832964312 12.500000000000028
    vertex 103.39564303306398 28.40583520831831 12.50000000000002
    vertex 98.12459709682807 31.338375637284216 12.500000000000028
  endloop
endfacet
facet normal -1.86351353660878e-16 -2.0753732265259093e-15 1.0
  outer loop
    vertex 98.12459709682807 31.338375637284216 12.500000000000028
    vertex 103.39564303306398 28.40583520831831 12.50000000000002
    vertex 98.54122486124042 31.308692724341874 12.500000000000028
  endloop
endfacet
facet normal -1.86351353660878e-16 -2.0753732265259093e-15 1.0
  outer loop
    vertex 98.54122486124042 31.308692724341874 12.500000000000028
    vertex 103.39564303306398 28.40583520831831 12.50000000000002
    vertex 98.95133888201899 31.38785243227978 12.500000000000028
  endloop
endfacet
facet normal -1.86351353660878e-16 -2.0753732265259093e-15 1.0
  outer loop
    vertex 98.95133888201899 31.38785243227978 12.500000000000028
    vertex 103.39564303306398 28.40583520831831 12.50000000000002
    vertex 99.32699056639316 31.57046015781956 12.500000000000028
  endloop
endfacet
facet normal -1.86351353660878e-16 -2.0753732265259093e-15 1.0
  outer loop
    vertex 99.32699056639316 31.57046015781956 12.500000000000028
    vertex 103.39564303306398 28.40583520831831 12.50000000000002
    vertex 99.64257987286662 31.844071486239223 12.50000000000003
  endloop
endfacet
facet normal -1.86351353660878e-16 -2.0753732265259093e-15 1.0
  outer loop
    vertex 99.64257987286662 31.844071486239223 12.50000000000003
    vertex 103.39564303306398 28.40583520831831 12.50000000000002
    vertex 99.87659991173918 32.19004025767106 12.50000000000003
  endloop
endfacet
facet normal -1.86351353660878e-16 -2.0753732265259093e-15 1.0
  outer loop
    vertex 99.87659991173918 32.19004025767106 12.50000000000003
    vertex 103.39564303306398 28.40583520831831 12.50000000000002
    vertex 100.01310260409808 32.58478927208242 12.500000000000032
  endloop
endfacet
facet normal -1.86351353660878e-16 -2.0753732265259093e-15 1.0
  outer loop
    vertex 100.01310260409808 32.58478927208242 12.500000000000032
    vertex 103.39564303306398 28.40583520831831 12.50000000000002
    vertex 100.04278551704043 33.001417036494765 12.500000000000032
  endloop
endfacet
facet normal -1.86351353660878e-16 -2.0753732265259093e-15 1.0
  outer loop
    vertex 103.39564303306398 28.40583520831831 12.50000000000002
    vertex 117.49564303306397 25.40583520831832 12.500000000000014
    vertex 120.49564303306397 28.40583520831832 12.500000000000023
  endloop
endfacet
facet normal -1.86351353660878e-16 -2.0753732265259093e-15 1.0
  outer loop
    vertex 120.49564303306397 28.40583520831832 12.500000000000023
    vertex 117.49564303306397 25.40583520831832 12.500000000000014
    vertex 120.49564303306397 25.40583520831832 12.500000000000014
  endloop
endfacet
facet normal -1.86351353660878e-16 -2.0753732265259093e-15 1.0
  outer loop
    vertex 93.49564303306397 40.40583520831832 12.500000000000048
    vertex 97.24870619326134 33.96759893039742 12.500000000000034
    vertex 103.39564303306398 40.40583520831832 12.500000000000048
  endloop
endfacet
facet normal -1.86351353660878e-16 -2.0753732265259093e-15 1.0
  outer loop
    vertex 97.24870619326134 33.96759893039742 12.500000000000034
    vertex 93.49564303306397 40.40583520831832 12.500000000000048
    vertex 97.01468615438877 33.62163015896559 12.500000000000034
  endloop
endfacet
facet normal -1.86351353660878e-16 -2.0753732265259093e-15 1.0
  outer loop
    vertex 97.01468615438877 33.62163015896559 12.500000000000034
    vertex 93.49564303306397 40.40583520831832 12.500000000000048
    vertex 96.87818346202988 33.22688114455422 12.500000000000032
  endloop
endfacet
facet normal -1.86351353660878e-16 -2.0753732265259093e-15 1.0
  outer loop
    vertex 96.87818346202988 33.22688114455422 12.500000000000032
    vertex 93.49564303306397 40.40583520831832 12.500000000000048
    vertex 96.84850054908753 32.81025338014188 12.500000000000032
  endloop
endfacet
facet normal -1.86351353660878e-16 -2.0753732265259093e-15 1.0
  outer loop
    vertex 103.39564303306398 40.40583520831832 12.500000000000048
    vertex 97.24870619326134 33.96759893039742 12.500000000000034
    vertex 97.5642954997348 34.241210258817084 12.500000000000036
  endloop
endfacet
facet normal -1.86351353660878e-16 -2.0753732265259093e-15 1.0
  outer loop
    vertex 103.39564303306398 40.40583520831832 12.500000000000048
    vertex 97.5642954997348 34.241210258817084 12.500000000000036
    vertex 97.93994718410897 34.423817984356866 12.500000000000036
  endloop
endfacet
facet normal -1.86351353660878e-16 -2.0753732265259093e-15 1.0
  outer loop
    vertex 103.39564303306398 40.40583520831832 12.500000000000048
    vertex 97.93994718410897 34.423817984356866 12.500000000000036
    vertex 98.35006120488752 34.50297769229477 12.500000000000036
  endloop
endfacet
facet normal -1.86351353660878e-16 -2.0753732265259093e-15 1.0
  outer loop
    vertex 103.39564303306398 40.40583520831832 12.500000000000048
    vertex 98.35006120488752 34.50297769229477 12.500000000000036
    vertex 98.76668896929988 34.47329477935243 12.500000000000036
  endloop
endfacet
facet normal -1.86351353660878e-16 -2.0753732265259093e-15 1.0
  outer loop
    vertex 103.39564303306398 40.40583520831832 12.500000000000048
    vertex 98.76668896929988 34.47329477935243 12.500000000000036
    vertex 99.16143798371124 34.336792086993526 12.500000000000036
  endloop
endfacet
facet normal -1.86351353660878e-16 -2.0753732265259093e-15 1.0
  outer loop
    vertex 103.39564303306398 40.40583520831832 12.500000000000048
    vertex 99.16143798371124 34.336792086993526 12.500000000000036
    vertex 99.50740675514308 34.10277204812097 12.500000000000036
  endloop
endfacet
facet normal -1.86351353660878e-16 -2.0753732265259093e-15 1.0
  outer loop
    vertex 103.39564303306398 40.40583520831832 12.500000000000048
    vertex 99.50740675514308 34.10277204812097 12.500000000000036
    vertex 99.78101808356273 33.787182741647506 12.500000000000034
  endloop
endfacet
facet normal -1.86351353660878e-16 -2.0753732265259093e-15 1.0
  outer loop
    vertex 103.39564303306398 40.40583520831832 12.500000000000048
    vertex 99.78101808356273 33.787182741647506 12.500000000000034
    vertex 99.96362580910252 33.41153105727333 12.500000000000034
  endloop
endfacet
facet normal -1.86351353660878e-16 -2.0753732265259093e-15 1.0
  outer loop
    vertex 103.39564303306398 40.40583520831832 12.500000000000048
    vertex 99.96362580910252 33.41153105727333 12.500000000000034
    vertex 100.04278551704043 33.001417036494765 12.500000000000032
  endloop
endfacet
facet normal -1.86351353660878e-16 -2.0753732265259093e-15 1.0
  outer loop
    vertex 103.39564303306398 40.40583520831832 12.500000000000048
    vertex 100.04278551704043 33.001417036494765 12.500000000000032
    vertex 103.39564303306398 28.40583520831831 12.50000000000002
  endloop
endfacet
facet normal 3.6578018359877184e-31 -1.0 -2.0753732265259097e-15
  outer loop
    vertex 117.49564303306397 25.405835208318326 10.500000000000012
    vertex 93.49564303306397 25.40583520831832 12.500000000000009
    vertex 93.49564303306397 25.405835208318326 10.500000000000009
  endloop
endfacet
facet normal 3.6578018359877184e-31 -1.0 -2.0753732265259097e-15
  outer loop
    vertex 93.49564303306397 25.40583520831832 12.500000000000009
    vertex 117.49564303306397 25.405835208318326 10.500000000000012
    vertex 117.49564303306397 25.40583520831832 12.500000000000014
  endloop
endfacet
facet normal -0.43719128904777277 0.8993685433573639 1.6303471407452403e-15
  outer loop
    vertex 98.95133888201899 31.38785243227978 12.500000000000028
    vertex 99.32699056639316 31.57046015781956 7.500000000000006
    vertex 98.95133888201899 31.38785243227978 7.500000000000006
  endloop
endfacet
facet normal -0.43719128904777277 0.8993685433573639 1.6303471407452403e-15
  outer loop
    vertex 99.32699056639316 31.57046015781956 7.500000000000006
    vertex 98.95133888201899 31.38785243227978 12.500000000000028
    vertex 99.32699056639316 31.57046015781956 12.500000000000028
  endloop
endfacet
facet normal -0.6550680647068591 0.7555698714223658 1.3311728661437696e-15
  outer loop
    vertex 99.32699056639316 31.57046015781956 12.500000000000028
    vertex 99.64257987286662 31.844071486239223 7.500000000000009
    vertex 99.32699056639316 31.57046015781956 7.500000000000006
  endloop
endfacet
facet normal -0.6550680647068591 0.7555698714223658 1.3311728661437696e-15
  outer loop
    vertex 99.64257987286662 31.844071486239223 7.500000000000009
    vertex 99.32699056639316 31.57046015781956 12.500000000000028
    vertex 99.64257987286662 31.844071486239223 12.50000000000003
  endloop
endfacet
facet normal -0.8283030343073156 0.5602803613882018 9.412813605818127e-16
  outer loop
    vertex 99.87659991173918 32.19004025767106 12.50000000000003
    vertex 99.64257987286662 31.844071486239223 7.500000000000009
    vertex 99.64257987286662 31.844071486239223 12.50000000000003
  endloop
endfacet
facet normal -0.8283030343073156 0.5602803613882018 9.412813605818127e-16
  outer loop
    vertex 99.64257987286662 31.844071486239223 7.500000000000009
    vertex 99.87659991173918 32.19004025767106 12.50000000000003
    vertex 99.87659991173918 32.19004025767106 7.500000000000009
  endloop
endfacet
facet normal -0.9450905209552314 0.3268086706324808 4.872430858371491e-16
  outer loop
    vertex 100.01310260409808 32.58478927208242 12.500000000000032
    vertex 99.87659991173918 32.19004025767106 7.500000000000009
    vertex 99.87659991173918 32.19004025767106 12.50000000000003
  endloop
endfacet
facet normal -0.9450905209552314 0.3268086706324808 4.872430858371491e-16
  outer loop
    vertex 99.87659991173918 32.19004025767106 7.500000000000009
    vertex 100.01310260409808 32.58478927208242 12.500000000000032
    vertex 100.01310260409808 32.58478927208242 7.500000000000009
  endloop
endfacet
facet normal -0.9974716504359692 0.07106550905005715 2.58129800284026e-29
  outer loop
    vertex 100.04278551704043 33.001417036494765 12.500000000000032
    vertex 100.01310260409808 32.58478927208242 7.500000000000009
    vertex 100.01310260409808 32.58478927208242 12.500000000000032
  endloop
endfacet
facet normal -0.9974716504359692 0.07106550905005715 2.58129800284026e-29
  outer loop
    vertex 100.01310260409808 32.58478927208242 7.500000000000009
    vertex 100.04278551704043 33.001417036494765 12.500000000000032
    vertex 100.04278551704043 33.001417036494765 7.500000000000009
  endloop
endfacet
facet normal -0.9818767353393414 -0.1895206495328596 -4.872430858371717e-16
  outer loop
    vertex 99.96362580910252 33.41153105727333 12.500000000000034
    vertex 100.04278551704043 33.001417036494765 7.500000000000009
    vertex 100.04278551704043 33.001417036494765 12.500000000000032
  endloop
endfacet
facet normal -0.9818767353393414 -0.1895206495328596 -4.872430858371717e-16
  outer loop
    vertex 100.04278551704043 33.001417036494765 7.500000000000009
    vertex 99.96362580910252 33.41153105727333 12.500000000000034
    vertex 99.96362580910252 33.41153105727333 7.5000000000000115
  endloop
endfacet
facet normal -0.8993685433573588 -0.43719128904778376 -9.412813605818172e-16
  outer loop
    vertex 99.78101808356273 33.787182741647506 12.500000000000034
    vertex 99.96362580910252 33.41153105727333 7.5000000000000115
    vertex 99.96362580910252 33.41153105727333 12.500000000000034
  endloop
endfacet
facet normal -0.8993685433573588 -0.43719128904778376 -9.412813605818172e-16
  outer loop
    vertex 99.96362580910252 33.41153105727333 7.5000000000000115
    vertex 99.78101808356273 33.787182741647506 12.500000000000034
    vertex 99.78101808356273 33.787182741647506 7.5000000000000115
  endloop
endfacet
facet normal -0.7555698714223851 -0.655068064706837 -1.3311728661437548e-15
  outer loop
    vertex 99.50740675514308 34.10277204812097 12.500000000000036
    vertex 99.78101808356273 33.787182741647506 7.5000000000000115
    vertex 99.78101808356273 33.787182741647506 12.500000000000034
  endloop
endfacet
facet normal -0.7555698714223851 -0.655068064706837 -1.3311728661437548e-15
  outer loop
    vertex 99.78101808356273 33.787182741647506 7.5000000000000115
    vertex 99.50740675514308 34.10277204812097 12.500000000000036
    vertex 99.50740675514308 34.10277204812097 7.5000000000000115
  endloop
endfacet
facet normal -0.5602803613881863 -0.8283030343073261 -1.6303471407452492e-15
  outer loop
    vertex 99.50740675514308 34.10277204812097 12.500000000000036
    vertex 99.16143798371124 34.336792086993526 7.5000000000000115
    vertex 99.50740675514308 34.10277204812097 7.5000000000000115
  endloop
endfacet
facet normal -0.5602803613881863 -0.8283030343073261 -1.6303471407452492e-15
  outer loop
    vertex 99.16143798371124 34.336792086993526 7.5000000000000115
    vertex 99.50740675514308 34.10277204812097 12.500000000000036
    vertex 99.16143798371124 34.336792086993526 12.500000000000036
  endloop
endfacet
facet normal -0.3268086706324929 -0.9450905209552274 -1.8184159519809465e-15
  outer loop
    vertex 99.16143798371124 34.336792086993526 12.500000000000036
    vertex 98.76668896929988 34.47329477935243 7.5000000000000115
    vertex 99.16143798371124 34.336792086993526 7.5000000000000115
  endloop
endfacet
facet normal -0.3268086706324929 -0.9450905209552274 -1.8184159519809465e-15
  outer loop
    vertex 98.76668896929988 34.47329477935243 7.5000000000000115
    vertex 99.16143798371124 34.336792086993526 12.500000000000036
    vertex 98.76668896929988 34.47329477935243 12.500000000000036
  endloop
endfacet
facet normal -0.07106550905004276 -0.9974716504359702 -1.882562721163601e-15
  outer loop
    vertex 98.76668896929988 34.47329477935243 12.500000000000036
    vertex 98.35006120488752 34.50297769229477 7.5000000000000115
    vertex 98.76668896929988 34.47329477935243 7.5000000000000115
  endloop
endfacet
facet normal -0.07106550905004276 -0.9974716504359702 -1.882562721163601e-15
  outer loop
    vertex 98.35006120488752 34.50297769229477 7.5000000000000115
    vertex 98.76668896929988 34.47329477935243 12.500000000000036
    vertex 98.35006120488752 34.50297769229477 12.500000000000036
  endloop
endfacet
facet normal 0.1895206495328621 -0.981876735339341 -1.8184159519809453e-15
  outer loop
    vertex 98.35006120488752 34.50297769229477 12.500000000000036
    vertex 97.93994718410897 34.423817984356866 7.5000000000000115
    vertex 98.35006120488752 34.50297769229477 7.5000000000000115
  endloop
endfacet
facet normal 0.1895206495328621 -0.981876735339341 -1.8184159519809453e-15
  outer loop
    vertex 97.93994718410897 34.423817984356866 7.5000000000000115
    vertex 98.35006120488752 34.50297769229477 12.500000000000036
    vertex 97.93994718410897 34.423817984356866 12.500000000000036
  endloop
endfacet
facet normal 0.43719128904777277 -0.8993685433573639 -1.6303471407452403e-15
  outer loop
    vertex 97.93994718410897 34.423817984356866 12.500000000000036
    vertex 97.5642954997348 34.241210258817084 7.5000000000000115
    vertex 97.93994718410897 34.423817984356866 7.5000000000000115
  endloop
endfacet
facet normal 0.43719128904777277 -0.8993685433573639 -1.6303471407452403e-15
  outer loop
    vertex 97.5642954997348 34.241210258817084 7.5000000000000115
    vertex 97.93994718410897 34.423817984356866 12.500000000000036
    vertex 97.5642954997348 34.241210258817084 12.500000000000036
  endloop
endfacet
facet normal 0.6550680647068591 -0.7555698714223658 -1.3311728661437696e-15
  outer loop
    vertex 97.5642954997348 34.241210258817084 12.500000000000036
    vertex 97.24870619326134 33.96759893039742 7.5000000000000115
    vertex 97.5642954997348 34.241210258817084 7.5000000000000115
  endloop
endfacet
facet normal 0.6550680647068591 -0.7555698714223658 -1.3311728661437696e-15
  outer loop
    vertex 97.24870619326134 33.96759893039742 7.5000000000000115
    vertex 97.5642954997348 34.241210258817084 12.500000000000036
    vertex 97.24870619326134 33.96759893039742 12.500000000000034
  endloop
endfacet
facet normal 0.8283030343073156 -0.5602803613882018 -9.412813605818127e-16
  outer loop
    vertex 97.24870619326134 33.96759893039742 7.5000000000000115
    vertex 97.01468615438877 33.62163015896559 12.500000000000034
    vertex 97.01468615438877 33.62163015896559 7.5000000000000115
  endloop
endfacet
facet normal 0.8283030343073156 -0.5602803613882018 -9.412813605818127e-16
  outer loop
    vertex 97.01468615438877 33.62163015896559 12.500000000000034
    vertex 97.24870619326134 33.96759893039742 7.5000000000000115
    vertex 97.24870619326134 33.96759893039742 12.500000000000034
  endloop
endfacet
facet normal 0.9450905209552314 -0.3268086706324808 -4.872430858371491e-16
  outer loop
    vertex 97.01468615438877 33.62163015896559 7.5000000000000115
    vertex 96.87818346202988 33.22688114455422 12.500000000000032
    vertex 96.87818346202988 33.22688114455422 7.500000000000009
  endloop
endfacet
facet normal 0.9450905209552314 -0.3268086706324808 -4.872430858371491e-16
  outer loop
    vertex 96.87818346202988 33.22688114455422 12.500000000000032
    vertex 97.01468615438877 33.62163015896559 7.5000000000000115
    vertex 97.01468615438877 33.62163015896559 12.500000000000034
  endloop
endfacet
facet normal 0.9974716504359692 -0.07106550905005715 -2.58129800284026e-29
  outer loop
    vertex 96.87818346202988 33.22688114455422 7.500000000000009
    vertex 96.84850054908753 32.81025338014188 12.500000000000032
    vertex 96.84850054908753 32.81025338014188 7.500000000000009
  endloop
endfacet
facet normal 0.9974716504359692 -0.07106550905005715 -2.58129800284026e-29
  outer loop
    vertex 96.84850054908753 32.81025338014188 12.500000000000032
    vertex 96.87818346202988 33.22688114455422 7.500000000000009
    vertex 96.87818346202988 33.22688114455422 12.500000000000032
  endloop
endfacet
facet normal 0.9818767353393414 0.1895206495328596 4.872430858371717e-16
  outer loop
    vertex 96.84850054908753 32.81025338014188 7.500000000000009
    vertex 96.92766025702544 32.400139359363315 12.50000000000003
    vertex 96.92766025702544 32.400139359363315 7.500000000000009
  endloop
endfacet
facet normal 0.9818767353393414 0.1895206495328596 4.872430858371717e-16
  outer loop
    vertex 96.92766025702544 32.400139359363315 12.50000000000003
    vertex 96.84850054908753 32.81025338014188 7.500000000000009
    vertex 96.84850054908753 32.81025338014188 12.500000000000032
  endloop
endfacet
facet normal 0.8993685433573588 0.43719128904778376 9.412813605818172e-16
  outer loop
    vertex 96.92766025702544 32.400139359363315 7.500000000000009
    vertex 97.11026798256522 32.02448767498914 12.50000000000003
    vertex 97.11026798256522 32.02448767498914 7.500000000000009
  endloop
endfacet
facet normal 0.8993685433573588 0.43719128904778376 9.412813605818172e-16
  outer loop
    vertex 97.11026798256522 32.02448767498914 12.50000000000003
    vertex 96.92766025702544 32.400139359363315 7.500000000000009
    vertex 96.92766025702544 32.400139359363315 12.50000000000003
  endloop
endfacet
facet normal 0.7555698714223791 0.6550680647068436 1.3311728661437664e-15
  outer loop
    vertex 97.11026798256522 32.02448767498914 7.500000000000009
    vertex 97.38387931098487 31.708898368515683 12.500000000000028
    vertex 97.38387931098487 31.708898368515683 7.500000000000006
  endloop
endfacet
facet normal 0.7555698714223791 0.6550680647068436 1.3311728661437664e-15
  outer loop
    vertex 97.38387931098487 31.708898368515683 12.500000000000028
    vertex 97.11026798256522 32.02448767498914 7.500000000000009
    vertex 97.11026798256522 32.02448767498914 12.50000000000003
  endloop
endfacet
facet normal 0.5602803613881955 0.8283030343073198 1.6303471407452387e-15
  outer loop
    vertex 97.38387931098487 31.708898368515683 12.500000000000028
    vertex 97.72984808241671 31.47487832964312 7.500000000000006
    vertex 97.38387931098487 31.708898368515683 7.500000000000006
  endloop
endfacet
facet normal 0.5602803613881955 0.8283030343073198 1.6303471407452387e-15
  outer loop
    vertex 97.72984808241671 31.47487832964312 7.500000000000006
    vertex 97.38387931098487 31.708898368515683 12.500000000000028
    vertex 97.72984808241671 31.47487832964312 12.500000000000028
  endloop
endfacet
facet normal 0.3268086706324929 0.9450905209552274 1.8184159519809465e-15
  outer loop
    vertex 97.72984808241671 31.47487832964312 12.500000000000028
    vertex 98.12459709682807 31.338375637284216 7.500000000000006
    vertex 97.72984808241671 31.47487832964312 7.500000000000006
  endloop
endfacet
facet normal 0.3268086706324929 0.9450905209552274 1.8184159519809465e-15
  outer loop
    vertex 98.12459709682807 31.338375637284216 7.500000000000006
    vertex 97.72984808241671 31.47487832964312 12.500000000000028
    vertex 98.12459709682807 31.338375637284216 12.500000000000028
  endloop
endfacet
facet normal 0.07106550905004276 0.9974716504359702 1.882562721163601e-15
  outer loop
    vertex 98.12459709682807 31.338375637284216 12.500000000000028
    vertex 98.54122486124042 31.308692724341874 7.500000000000006
    vertex 98.12459709682807 31.338375637284216 7.500000000000006
  endloop
endfacet
facet normal 0.07106550905004276 0.9974716504359702 1.882562721163601e-15
  outer loop
    vertex 98.54122486124042 31.308692724341874 7.500000000000006
    vertex 98.12459709682807 31.338375637284216 12.500000000000028
    vertex 98.54122486124042 31.308692724341874 12.500000000000028
  endloop
endfacet
facet normal -0.1895206495328621 0.981876735339341 1.8184159519809453e-15
  outer loop
    vertex 98.54122486124042 31.308692724341874 12.500000000000028
    vertex 98.95133888201899 31.38785243227978 7.500000000000006
    vertex 98.54122486124042 31.308692724341874 7.500000000000006
  endloop
endfacet
facet normal -0.1895206495328621 0.981876735339341 1.8184159519809453e-15
  outer loop
    vertex 98.95133888201899 31.38785243227978 7.500000000000006
    vertex 98.54122486124042 31.308692724341874 12.500000000000028
    vertex 98.95133888201899 31.38785243227978 12.500000000000028
  endloop
endfacet
endsolid PCBMOUNT1A
