solid DUALARPCB
facet normal 1.0 -0.0 -0.0
  outer loop
    vertex 50.62383487963604 -31.74665143347573 -1.7341181043023414e-17
    vertex 50.62383487963604 -24.746651433475765 5.0
    vertex 50.62383487963604 -31.74665143347576 5.0
  endloop
endfacet
facet normal 1.0 -0.0 -0.0
  outer loop
    vertex 50.62383487963604 -24.746651433475765 5.0
    vertex 50.62383487963604 -31.74665143347573 -1.7341181043023414e-17
    vertex 50.62383487963604 -24.746651433475765 -1.7341181043023414e-17
  endloop
endfacet
facet normal -3.3176076265269443e-16 1.0 0.0
  outer loop
    vertex 40.62383487963606 -24.74665143347577 5.0
    vertex 50.62383487963604 -24.746651433475765 -1.7341181043023414e-17
    vertex 40.62383487963606 -24.74665143347577 -1.7341181043023414e-17
  endloop
endfacet
facet normal -3.3176076265269443e-16 1.0 0.0
  outer loop
    vertex 50.62383487963604 -24.746651433475765 -1.7341181043023414e-17
    vertex 40.62383487963606 -24.74665143347577 5.0
    vertex 50.62383487963604 -24.746651433475765 5.0
  endloop
endfacet
facet normal -1.0 0.0 0.0
  outer loop
    vertex 40.62383487963606 -24.74665143347577 5.0
    vertex 40.62383487963606 -31.746651433475716 -1.7341181043023414e-17
    vertex 40.62383487963606 -31.74665143347576 5.0
  endloop
endfacet
facet normal -1.0 0.0 0.0
  outer loop
    vertex 40.62383487963606 -31.746651433475716 -1.7341181043023414e-17
    vertex 40.62383487963606 -24.74665143347577 5.0
    vertex 40.62383487963606 -24.74665143347577 -1.7341181043023414e-17
  endloop
endfacet
facet normal 3.232082730963665e-15 1.0 2.412072280038323e-15
  outer loop
    vertex 9.823834879636127 -31.74665143347576 -7.029721232599205e-17
    vertex 12.323834879636134 -31.74665143347576 8.000000000000007
    vertex 40.62383487963606 -31.746651433475716 -1.7341181043023414e-17
  endloop
endfacet
facet normal 3.232082730963665e-15 1.0 2.412072280038323e-15
  outer loop
    vertex 12.323834879636134 -31.74665143347576 8.000000000000007
    vertex 9.823834879636127 -31.74665143347576 -7.029721232599205e-17
    vertex 9.823834879636133 -31.746651433475744 59.500000000000014
  endloop
endfacet
facet normal 3.232082730963665e-15 1.0 2.412072280038323e-15
  outer loop
    vertex 40.62383487963606 -31.746651433475716 -1.7341181043023414e-17
    vertex 12.323834879636134 -31.74665143347576 8.000000000000007
    vertex 40.62383487963606 -31.74665143347576 5.0
  endloop
endfacet
facet normal 3.232082730963665e-15 1.0 2.412072280038323e-15
  outer loop
    vertex 12.323834879636134 -31.74665143347576 8.000000000000007
    vertex 9.823834879636133 -31.746651433475744 59.500000000000014
    vertex 12.323834879636134 -31.74665143347576 57.00000000000001
  endloop
endfacet
facet normal 3.232082730963665e-15 1.0 2.412072280038323e-15
  outer loop
    vertex 12.323834879636134 -31.74665143347576 57.00000000000001
    vertex 9.823834879636133 -31.746651433475744 59.500000000000014
    vertex 80.32383487963604 -31.746651433476078 57.00000000000001
  endloop
endfacet
facet normal 3.232082730963665e-15 1.0 2.412072280038323e-15
  outer loop
    vertex 82.82383487963605 -31.746651433475712 -1.5855726446426807e-16
    vertex 80.32383487963604 -31.746651433476078 8.000000000000007
    vertex 82.82383487963604 -31.74665143347609 59.500000000000014
  endloop
endfacet
facet normal 3.232082730963665e-15 1.0 2.412072280038323e-15
  outer loop
    vertex 80.32383487963604 -31.746651433476078 8.000000000000007
    vertex 82.82383487963605 -31.746651433475712 -1.5855726446426807e-16
    vertex 50.62383487963604 -31.74665143347573 -1.7341181043023414e-17
  endloop
endfacet
facet normal 3.232082730963665e-15 1.0 2.412072280038323e-15
  outer loop
    vertex 80.32383487963604 -31.746651433476078 8.000000000000007
    vertex 50.62383487963604 -31.74665143347573 -1.7341181043023414e-17
    vertex 50.62383487963604 -31.74665143347576 5.0
  endloop
endfacet
facet normal 3.232082730963665e-15 1.0 2.412072280038323e-15
  outer loop
    vertex 80.32383487963604 -31.746651433476078 8.000000000000007
    vertex 50.62383487963604 -31.74665143347576 5.0
    vertex 50.62383487963604 -31.746651433475847 8.000000000000007
  endloop
endfacet
facet normal 3.232082730963665e-15 1.0 2.412072280038323e-15
  outer loop
    vertex 82.82383487963604 -31.74665143347609 59.500000000000014
    vertex 80.32383487963604 -31.746651433476078 8.000000000000007
    vertex 80.32383487963604 -31.746651433476078 57.00000000000001
  endloop
endfacet
facet normal 3.232082730963665e-15 1.0 2.412072280038323e-15
  outer loop
    vertex 82.82383487963604 -31.74665143347609 59.500000000000014
    vertex 80.32383487963604 -31.746651433476078 57.00000000000001
    vertex 9.823834879636133 -31.746651433475744 59.500000000000014
  endloop
endfacet
facet normal 3.232082730963665e-15 1.0 2.412072280038323e-15
  outer loop
    vertex 40.62383487963606 -31.746651433475893 8.000000000000007
    vertex 40.62383487963606 -31.74665143347576 5.0
    vertex 12.323834879636134 -31.74665143347576 8.000000000000007
  endloop
endfacet
facet normal -1.0 2.46946183761116e-16 3.530402085531244e-17
  outer loop
    vertex 9.823834879636127 -37.24665143347577 59.50000000000001
    vertex 9.823834879636127 -31.74665143347576 -7.029721232599205e-17
    vertex 9.823834879636127 -37.24665143347582 -7.029721232599205e-17
  endloop
endfacet
facet normal -1.0 2.46946183761116e-16 3.530402085531244e-17
  outer loop
    vertex 9.823834879636127 -31.74665143347576 -7.029721232599205e-17
    vertex 9.823834879636127 -37.24665143347577 59.50000000000001
    vertex 9.823834879636133 -31.746651433475744 59.500000000000014
  endloop
endfacet
facet normal 1.0 -1.3923615578840154e-15 9.414405561416314e-17
  outer loop
    vertex 82.82383487963605 -31.746651433475712 -1.5855726446426807e-16
    vertex 82.82383487963604 -37.24665143347577 59.50000000000001
    vertex 82.82383487963604 -37.24665143347582 -1.5855726446426807e-16
  endloop
endfacet
facet normal 1.0 -1.3923615578840154e-15 9.414405561416314e-17
  outer loop
    vertex 82.82383487963604 -37.24665143347577 59.50000000000001
    vertex 82.82383487963605 -31.746651433475712 -1.5855726446426807e-16
    vertex 82.82383487963604 -31.74665143347609 59.500000000000014
  endloop
endfacet
facet normal 1.5364978863088726e-32 -1.0 8.573561899743614e-16
  outer loop
    vertex 82.82383487963604 -37.24665143347577 59.50000000000001
    vertex 9.823834879636127 -37.24665143347582 -7.029721232599205e-17
    vertex 82.82383487963604 -37.24665143347582 -1.5855726446426807e-16
  endloop
endfacet
facet normal 1.5364978863088726e-32 -1.0 8.573561899743614e-16
  outer loop
    vertex 9.823834879636127 -37.24665143347582 -7.029721232599205e-17
    vertex 82.82383487963604 -37.24665143347577 59.50000000000001
    vertex 9.823834879636127 -37.24665143347577 59.50000000000001
  endloop
endfacet
facet normal 0.0 0.0 1.0
  outer loop
    vertex 82.82383487963604 -37.24665143347577 59.50000000000001
    vertex 9.823834879636133 -31.746651433475744 59.500000000000014
    vertex 9.823834879636127 -37.24665143347577 59.50000000000001
  endloop
endfacet
facet normal 0.0 0.0 1.0
  outer loop
    vertex 9.823834879636133 -31.746651433475744 59.500000000000014
    vertex 82.82383487963604 -37.24665143347577 59.50000000000001
    vertex 82.82383487963604 -31.74665143347609 59.500000000000014
  endloop
endfacet
facet normal 4.592516843006582e-15 1.0 1.3248164869127196e-32
  outer loop
    vertex 12.323834879636129 -36.64665143347544 57.0
    vertex 80.32383487963604 -36.64665143347576 8.0
    vertex 12.323834879636129 -36.64665143347544 8.0
  endloop
endfacet
facet normal 4.592516843006582e-15 1.0 1.3248164869127196e-32
  outer loop
    vertex 80.32383487963604 -36.64665143347576 8.0
    vertex 12.323834879636129 -36.64665143347544 57.0
    vertex 80.32383487963604 -36.64665143347576 57.0
  endloop
endfacet
facet normal -0.0 0.0 1.0
  outer loop
    vertex 12.323834879636129 -36.64665143347544 8.0
    vertex 40.62383487963606 -34.446651433475886 7.999999999999893
    vertex 12.323834879636134 -31.74665143347576 8.000000000000007
  endloop
endfacet
facet normal -0.0 0.0 1.0
  outer loop
    vertex 40.62383487963606 -34.446651433475886 7.999999999999893
    vertex 12.323834879636129 -36.64665143347544 8.0
    vertex 80.32383487963604 -36.64665143347576 8.0
  endloop
endfacet
facet normal -0.0 0.0 1.0
  outer loop
    vertex 40.62383487963606 -34.446651433475886 7.999999999999893
    vertex 80.32383487963604 -36.64665143347576 8.0
    vertex 50.62383487963604 -34.44665143347584 7.999999999999893
  endloop
endfacet
facet normal -0.0 0.0 1.0
  outer loop
    vertex 50.62383487963604 -34.44665143347584 7.999999999999893
    vertex 80.32383487963604 -36.64665143347576 8.0
    vertex 50.62383487963604 -31.746651433475847 8.000000000000007
  endloop
endfacet
facet normal -0.0 0.0 1.0
  outer loop
    vertex 50.62383487963604 -31.746651433475847 8.000000000000007
    vertex 80.32383487963604 -36.64665143347576 8.0
    vertex 80.32383487963604 -31.746651433476078 8.000000000000007
  endloop
endfacet
facet normal -0.0 0.0 1.0
  outer loop
    vertex 40.62383487963606 -31.746651433475893 8.000000000000007
    vertex 12.323834879636134 -31.74665143347576 8.000000000000007
    vertex 40.62383487963606 -34.446651433475886 7.999999999999893
  endloop
endfacet
facet normal -1.0 4.526788300932157e-15 0.0
  outer loop
    vertex 80.32383487963604 -31.746651433476078 57.00000000000001
    vertex 80.32383487963604 -36.64665143347576 8.0
    vertex 80.32383487963604 -36.64665143347576 57.0
  endloop
endfacet
facet normal -1.0 4.526788300932157e-15 0.0
  outer loop
    vertex 80.32383487963604 -36.64665143347576 8.0
    vertex 80.32383487963604 -31.746651433476078 57.00000000000001
    vertex 80.32383487963604 -31.746651433476078 8.000000000000007
  endloop
endfacet
facet normal 0.0 0.0 -1.0
  outer loop
    vertex 12.323834879636134 -31.74665143347576 57.00000000000001
    vertex 80.32383487963604 -36.64665143347576 57.0
    vertex 12.323834879636129 -36.64665143347544 57.0
  endloop
endfacet
facet normal 0.0 0.0 -1.0
  outer loop
    vertex 80.32383487963604 -36.64665143347576 57.0
    vertex 12.323834879636134 -31.74665143347576 57.00000000000001
    vertex 80.32383487963604 -31.746651433476078 57.00000000000001
  endloop
endfacet
facet normal 1.0 -4.526788300932157e-15 0.0
  outer loop
    vertex 12.323834879636134 -31.74665143347576 8.000000000000007
    vertex 12.323834879636129 -36.64665143347544 57.0
    vertex 12.323834879636129 -36.64665143347544 8.0
  endloop
endfacet
facet normal 1.0 -4.526788300932157e-15 0.0
  outer loop
    vertex 12.323834879636129 -36.64665143347544 57.0
    vertex 12.323834879636134 -31.74665143347576 8.000000000000007
    vertex 12.323834879636134 -31.74665143347576 57.00000000000001
  endloop
endfacet
facet normal -0.0 -0.0 1.0
  outer loop
    vertex 50.62383487963604 -34.44665143347575 4.999999999999904
    vertex 40.62383487963606 -31.74665143347576 5.0
    vertex 40.62383487963606 -34.44665143347575 4.999999999999904
  endloop
endfacet
facet normal -0.0 -0.0 1.0
  outer loop
    vertex 40.62383487963606 -31.74665143347576 5.0
    vertex 50.62383487963604 -34.44665143347575 4.999999999999904
    vertex 44.78674884627973 -31.475956373645484 5.0
  endloop
endfacet
facet normal -0.0 -0.0 1.0
  outer loop
    vertex 40.62383487963606 -31.74665143347576 5.0
    vertex 44.78674884627973 -31.475956373645484 5.0
    vertex 44.36599109919996 -31.213318881148155 5.0
  endloop
endfacet
facet normal -0.0 -0.0 1.0
  outer loop
    vertex 40.62383487963606 -31.74665143347576 5.0
    vertex 44.36599109919996 -31.213318881148155 5.0
    vertex 44.027545909700684 -30.85073042587451 5.0
  endloop
endfacet
facet normal -0.0 -0.0 1.0
  outer loop
    vertex 40.62383487963606 -31.74665143347576 5.0
    vertex 44.027545909700684 -30.85073042587451 5.0
    vertex 40.62383487963606 -24.74665143347577 5.0
  endloop
endfacet
facet normal -0.0 -0.0 1.0
  outer loop
    vertex 40.62383487963606 -24.74665143347577 5.0
    vertex 44.027545909700684 -30.85073042587451 5.0
    vertex 43.794477758139166 -30.412900811845695 5.0
  endloop
endfacet
facet normal -0.0 -0.0 1.0
  outer loop
    vertex 40.62383487963606 -24.74665143347577 5.0
    vertex 43.794477758139166 -30.412900811845695 5.0
    vertex 43.68266985388098 -29.929667403710123 5.0
  endloop
endfacet
facet normal -0.0 -0.0 1.0
  outer loop
    vertex 44.78674884627973 -31.475956373645484 5.0
    vertex 50.62383487963604 -34.44665143347575 4.999999999999904
    vertex 45.261145205811566 -31.620744592281785 5.0
  endloop
endfacet
facet normal -0.0 -0.0 1.0
  outer loop
    vertex 45.261145205811566 -31.620744592281785 5.0
    vertex 50.62383487963604 -34.44665143347575 4.999999999999904
    vertex 45.75685084987042 -31.63781645923083 5.0
  endloop
endfacet
facet normal -0.0 -0.0 1.0
  outer loop
    vertex 45.75685084987042 -31.63781645923083 5.0
    vertex 50.62383487963604 -34.44665143347575 4.999999999999904
    vertex 46.240084258005986 -31.526008554972645 5.0
  endloop
endfacet
facet normal -0.0 -0.0 1.0
  outer loop
    vertex 46.240084258005986 -31.526008554972645 5.0
    vertex 50.62383487963604 -34.44665143347575 4.999999999999904
    vertex 46.6779138720348 -31.292940403411126 5.0
  endloop
endfacet
facet normal -0.0 -0.0 1.0
  outer loop
    vertex 46.6779138720348 -31.292940403411126 5.0
    vertex 50.62383487963604 -34.44665143347575 4.999999999999904
    vertex 47.040502327308445 -30.95449521391185 5.0
  endloop
endfacet
facet normal -0.0 -0.0 1.0
  outer loop
    vertex 47.040502327308445 -30.95449521391185 5.0
    vertex 50.62383487963604 -34.44665143347575 4.999999999999904
    vertex 47.30313981980577 -30.533737466832083 5.0
  endloop
endfacet
facet normal -0.0 -0.0 1.0
  outer loop
    vertex 47.30313981980577 -30.533737466832083 5.0
    vertex 50.62383487963604 -34.44665143347575 4.999999999999904
    vertex 47.44792803844208 -30.05934110730025 5.0
  endloop
endfacet
facet normal -0.0 -0.0 1.0
  outer loop
    vertex 47.44792803844208 -30.05934110730025 5.0
    vertex 50.62383487963604 -34.44665143347575 4.999999999999904
    vertex 47.464999905391124 -29.563635463241397 5.0
  endloop
endfacet
facet normal -0.0 -0.0 1.0
  outer loop
    vertex 40.62383487963606 -24.74665143347577 5.0
    vertex 44.469755887237305 -28.200362463540394 5.0
    vertex 50.62383487963604 -24.746651433475765 5.0
  endloop
endfacet
facet normal -0.0 -0.0 1.0
  outer loop
    vertex 44.469755887237305 -28.200362463540394 5.0
    vertex 40.62383487963606 -24.74665143347577 5.0
    vertex 44.10716743196365 -28.53880765303967 5.0
  endloop
endfacet
facet normal -0.0 -0.0 1.0
  outer loop
    vertex 44.10716743196365 -28.53880765303967 5.0
    vertex 40.62383487963606 -24.74665143347577 5.0
    vertex 43.84452993946633 -28.959565400119438 5.0
  endloop
endfacet
facet normal -0.0 -0.0 1.0
  outer loop
    vertex 43.84452993946633 -28.959565400119438 5.0
    vertex 40.62383487963606 -24.74665143347577 5.0
    vertex 43.699741720830026 -29.43396175965127 5.0
  endloop
endfacet
facet normal -0.0 -0.0 1.0
  outer loop
    vertex 43.699741720830026 -29.43396175965127 5.0
    vertex 40.62383487963606 -24.74665143347577 5.0
    vertex 43.68266985388098 -29.929667403710123 5.0
  endloop
endfacet
facet normal -0.0 -0.0 1.0
  outer loop
    vertex 50.62383487963604 -24.746651433475765 5.0
    vertex 44.469755887237305 -28.200362463540394 5.0
    vertex 44.90758550126612 -27.967294311978875 5.0
  endloop
endfacet
facet normal -0.0 -0.0 1.0
  outer loop
    vertex 50.62383487963604 -24.746651433475765 5.0
    vertex 44.90758550126612 -27.967294311978875 5.0
    vertex 45.39081890940169 -27.85548640772069 5.0
  endloop
endfacet
facet normal -0.0 -0.0 1.0
  outer loop
    vertex 50.62383487963604 -24.746651433475765 5.0
    vertex 45.39081890940169 -27.85548640772069 5.0
    vertex 45.88652455346054 -27.872558274669736 5.0
  endloop
endfacet
facet normal -0.0 -0.0 1.0
  outer loop
    vertex 50.62383487963604 -24.746651433475765 5.0
    vertex 45.88652455346054 -27.872558274669736 5.0
    vertex 46.36092091299238 -28.01734649330604 5.0
  endloop
endfacet
facet normal -0.0 -0.0 1.0
  outer loop
    vertex 50.62383487963604 -24.746651433475765 5.0
    vertex 46.36092091299238 -28.01734649330604 5.0
    vertex 46.78167866007214 -28.279983985803366 5.0
  endloop
endfacet
facet normal -0.0 -0.0 1.0
  outer loop
    vertex 50.62383487963604 -24.746651433475765 5.0
    vertex 46.78167866007214 -28.279983985803366 5.0
    vertex 47.120123849571414 -28.642572441077014 5.0
  endloop
endfacet
facet normal -0.0 -0.0 1.0
  outer loop
    vertex 50.62383487963604 -24.746651433475765 5.0
    vertex 47.120123849571414 -28.642572441077014 5.0
    vertex 47.35319200113293 -29.080402055105825 5.0
  endloop
endfacet
facet normal -0.0 -0.0 1.0
  outer loop
    vertex 50.62383487963604 -24.746651433475765 5.0
    vertex 47.35319200113293 -29.080402055105825 5.0
    vertex 47.464999905391124 -29.563635463241397 5.0
  endloop
endfacet
facet normal -0.0 -0.0 1.0
  outer loop
    vertex 50.62383487963604 -24.746651433475765 5.0
    vertex 47.464999905391124 -29.563635463241397 5.0
    vertex 50.62383487963604 -34.44665143347575 4.999999999999904
  endloop
endfacet
facet normal -0.0 -0.0 1.0
  outer loop
    vertex 50.62383487963604 -24.746651433475765 5.0
    vertex 50.62383487963604 -34.44665143347575 4.999999999999904
    vertex 50.62383487963604 -31.74665143347576 5.0
  endloop
endfacet
facet normal -0.03441911917543924 -0.999407486581518 0.0
  outer loop
    vertex 45.88652455346054 -27.872558274669736 5.0
    vertex 45.39081890940169 -27.85548640772069 -1.4099832412739487e-15
    vertex 45.88652455346054 -27.872558274669736 -1.4099832412739487e-15
  endloop
endfacet
facet normal -0.03441911917543924 -0.999407486581518 0.0
  outer loop
    vertex 45.39081890940169 -27.85548640772069 -1.4099832412739487e-15
    vertex 45.88652455346054 -27.872558274669736 5.0
    vertex 45.39081890940169 -27.85548640772069 5.0
  endloop
endfacet
facet normal 0.22541937521565786 -0.9742618258339913 0.0
  outer loop
    vertex 45.39081890940169 -27.85548640772069 5.0
    vertex 44.90758550126612 -27.967294311978875 -1.4099832412739487e-15
    vertex 45.39081890940169 -27.85548640772069 -1.4099832412739487e-15
  endloop
endfacet
facet normal 0.22541937521565786 -0.9742618258339913 0.0
  outer loop
    vertex 44.90758550126612 -27.967294311978875 -1.4099832412739487e-15
    vertex 45.39081890940169 -27.85548640772069 5.0
    vertex 44.90758550126612 -27.967294311978875 5.0
  endloop
endfacet
facet normal 0.46989591170893596 -0.8827218316996742 0.0
  outer loop
    vertex 44.90758550126612 -27.967294311978875 5.0
    vertex 44.469755887237305 -28.200362463540394 -1.4099832412739487e-15
    vertex 44.90758550126612 -27.967294311978875 -1.4099832412739487e-15
  endloop
endfacet
facet normal 0.46989591170893596 -0.8827218316996742 0.0
  outer loop
    vertex 44.469755887237305 -28.200362463540394 -1.4099832412739487e-15
    vertex 44.90758550126612 -27.967294311978875 5.0
    vertex 44.469755887237305 -28.200362463540394 5.0
  endloop
endfacet
facet normal 0.6823498183589702 -0.7310258035018191 0.0
  outer loop
    vertex 44.469755887237305 -28.200362463540394 5.0
    vertex 44.10716743196365 -28.53880765303967 -1.4099832412739487e-15
    vertex 44.469755887237305 -28.200362463540394 -1.4099832412739487e-15
  endloop
endfacet
facet normal 0.6823498183589702 -0.7310258035018191 0.0
  outer loop
    vertex 44.10716743196365 -28.53880765303967 -1.4099832412739487e-15
    vertex 44.469755887237305 -28.200362463540394 5.0
    vertex 44.10716743196365 -28.53880765303967 5.0
  endloop
endfacet
facet normal 0.8483027125242285 -0.5295115748725765 -0.0
  outer loop
    vertex 44.10716743196365 -28.53880765303967 -1.4099832412739487e-15
    vertex 43.84452993946633 -28.959565400119438 5.0
    vertex 43.84452993946633 -28.959565400119438 -1.4099832412739487e-15
  endloop
endfacet
facet normal 0.8483027125242285 -0.5295115748725765 -0.0
  outer loop
    vertex 43.84452993946633 -28.959565400119438 5.0
    vertex 44.10716743196365 -28.53880765303967 -1.4099832412739487e-15
    vertex 44.10716743196365 -28.53880765303967 5.0
  endloop
endfacet
facet normal 0.9564451787174733 -0.291912007475028 -0.0
  outer loop
    vertex 43.84452993946633 -28.959565400119438 -1.4099832412739487e-15
    vertex 43.699741720830026 -29.43396175965127 5.0
    vertex 43.699741720830026 -29.43396175965127 -1.4099832412739487e-15
  endloop
endfacet
facet normal 0.9564451787174733 -0.291912007475028 -0.0
  outer loop
    vertex 43.699741720830026 -29.43396175965127 5.0
    vertex 43.84452993946633 -28.959565400119438 -1.4099832412739487e-15
    vertex 43.84452993946633 -28.959565400119438 5.0
  endloop
endfacet
facet normal 0.999407486581518 -0.03441911917543924 -0.0
  outer loop
    vertex 43.699741720830026 -29.43396175965127 -1.4099832412739487e-15
    vertex 43.68266985388098 -29.929667403710123 5.0
    vertex 43.68266985388098 -29.929667403710123 -1.4099832412739487e-15
  endloop
endfacet
facet normal 0.999407486581518 -0.03441911917543924 -0.0
  outer loop
    vertex 43.68266985388098 -29.929667403710123 5.0
    vertex 43.699741720830026 -29.43396175965127 -1.4099832412739487e-15
    vertex 43.699741720830026 -29.43396175965127 5.0
  endloop
endfacet
facet normal 0.9742618258339913 0.22541937521565786 -0.0
  outer loop
    vertex 43.68266985388098 -29.929667403710123 -1.4099832412739487e-15
    vertex 43.794477758139166 -30.412900811845695 5.0
    vertex 43.794477758139166 -30.412900811845695 -1.4099832412739487e-15
  endloop
endfacet
facet normal 0.9742618258339913 0.22541937521565786 -0.0
  outer loop
    vertex 43.794477758139166 -30.412900811845695 5.0
    vertex 43.68266985388098 -29.929667403710123 -1.4099832412739487e-15
    vertex 43.68266985388098 -29.929667403710123 5.0
  endloop
endfacet
facet normal 0.8827218316996742 0.46989591170893596 -0.0
  outer loop
    vertex 43.794477758139166 -30.412900811845695 -1.4099832412739487e-15
    vertex 44.027545909700684 -30.85073042587451 5.0
    vertex 44.027545909700684 -30.85073042587451 -1.4099832412739487e-15
  endloop
endfacet
facet normal 0.8827218316996742 0.46989591170893596 -0.0
  outer loop
    vertex 44.027545909700684 -30.85073042587451 5.0
    vertex 43.794477758139166 -30.412900811845695 -1.4099832412739487e-15
    vertex 43.794477758139166 -30.412900811845695 5.0
  endloop
endfacet
facet normal 0.7310258035018191 0.6823498183589702 -0.0
  outer loop
    vertex 44.027545909700684 -30.85073042587451 -1.4099832412739487e-15
    vertex 44.36599109919996 -31.213318881148155 5.0
    vertex 44.36599109919996 -31.213318881148155 -1.4099832412739487e-15
  endloop
endfacet
facet normal 0.7310258035018191 0.6823498183589702 -0.0
  outer loop
    vertex 44.36599109919996 -31.213318881148155 5.0
    vertex 44.027545909700684 -30.85073042587451 -1.4099832412739487e-15
    vertex 44.027545909700684 -30.85073042587451 5.0
  endloop
endfacet
facet normal 0.5295115748725765 0.8483027125242285 -0.0
  outer loop
    vertex 44.36599109919996 -31.213318881148155 5.0
    vertex 44.78674884627973 -31.475956373645484 -1.4099832412739487e-15
    vertex 44.36599109919996 -31.213318881148155 -1.4099832412739487e-15
  endloop
endfacet
facet normal 0.5295115748725765 0.8483027125242285 -0.0
  outer loop
    vertex 44.78674884627973 -31.475956373645484 -1.4099832412739487e-15
    vertex 44.36599109919996 -31.213318881148155 5.0
    vertex 44.78674884627973 -31.475956373645484 5.0
  endloop
endfacet
facet normal 0.291912007475028 0.9564451787174733 -0.0
  outer loop
    vertex 44.78674884627973 -31.475956373645484 5.0
    vertex 45.261145205811566 -31.620744592281785 -1.4099832412739487e-15
    vertex 44.78674884627973 -31.475956373645484 -1.4099832412739487e-15
  endloop
endfacet
facet normal 0.291912007475028 0.9564451787174733 -0.0
  outer loop
    vertex 45.261145205811566 -31.620744592281785 -1.4099832412739487e-15
    vertex 44.78674884627973 -31.475956373645484 5.0
    vertex 45.261145205811566 -31.620744592281785 5.0
  endloop
endfacet
facet normal 0.03441911917543924 0.999407486581518 -0.0
  outer loop
    vertex 45.261145205811566 -31.620744592281785 5.0
    vertex 45.75685084987042 -31.63781645923083 -1.4099832412739487e-15
    vertex 45.261145205811566 -31.620744592281785 -1.4099832412739487e-15
  endloop
endfacet
facet normal 0.03441911917543924 0.999407486581518 -0.0
  outer loop
    vertex 45.75685084987042 -31.63781645923083 -1.4099832412739487e-15
    vertex 45.261145205811566 -31.620744592281785 5.0
    vertex 45.75685084987042 -31.63781645923083 5.0
  endloop
endfacet
facet normal -0.22541937521565786 0.9742618258339913 -0.0
  outer loop
    vertex 45.75685084987042 -31.63781645923083 5.0
    vertex 46.240084258005986 -31.526008554972645 -1.4099832412739487e-15
    vertex 45.75685084987042 -31.63781645923083 -1.4099832412739487e-15
  endloop
endfacet
facet normal -0.22541937521565786 0.9742618258339913 -0.0
  outer loop
    vertex 46.240084258005986 -31.526008554972645 -1.4099832412739487e-15
    vertex 45.75685084987042 -31.63781645923083 5.0
    vertex 46.240084258005986 -31.526008554972645 5.0
  endloop
endfacet
facet normal -0.46989591170893596 0.8827218316996742 -0.0
  outer loop
    vertex 46.240084258005986 -31.526008554972645 5.0
    vertex 46.6779138720348 -31.292940403411126 -1.4099832412739487e-15
    vertex 46.240084258005986 -31.526008554972645 -1.4099832412739487e-15
  endloop
endfacet
facet normal -0.46989591170893596 0.8827218316996742 -0.0
  outer loop
    vertex 46.6779138720348 -31.292940403411126 -1.4099832412739487e-15
    vertex 46.240084258005986 -31.526008554972645 5.0
    vertex 46.6779138720348 -31.292940403411126 5.0
  endloop
endfacet
facet normal -0.6823498183589702 0.7310258035018191 -0.0
  outer loop
    vertex 46.6779138720348 -31.292940403411126 5.0
    vertex 47.040502327308445 -30.95449521391185 -1.4099832412739487e-15
    vertex 46.6779138720348 -31.292940403411126 -1.4099832412739487e-15
  endloop
endfacet
facet normal -0.6823498183589702 0.7310258035018191 -0.0
  outer loop
    vertex 47.040502327308445 -30.95449521391185 -1.4099832412739487e-15
    vertex 46.6779138720348 -31.292940403411126 5.0
    vertex 47.040502327308445 -30.95449521391185 5.0
  endloop
endfacet
facet normal -0.8483027125242285 0.5295115748725765 0.0
  outer loop
    vertex 47.30313981980577 -30.533737466832083 5.0
    vertex 47.040502327308445 -30.95449521391185 -1.4099832412739487e-15
    vertex 47.040502327308445 -30.95449521391185 5.0
  endloop
endfacet
facet normal -0.8483027125242285 0.5295115748725765 0.0
  outer loop
    vertex 47.040502327308445 -30.95449521391185 -1.4099832412739487e-15
    vertex 47.30313981980577 -30.533737466832083 5.0
    vertex 47.30313981980577 -30.533737466832083 -1.4099832412739487e-15
  endloop
endfacet
facet normal -0.9564451787174733 0.291912007475028 0.0
  outer loop
    vertex 47.44792803844208 -30.05934110730025 5.0
    vertex 47.30313981980577 -30.533737466832083 -1.4099832412739487e-15
    vertex 47.30313981980577 -30.533737466832083 5.0
  endloop
endfacet
facet normal -0.9564451787174733 0.291912007475028 0.0
  outer loop
    vertex 47.30313981980577 -30.533737466832083 -1.4099832412739487e-15
    vertex 47.44792803844208 -30.05934110730025 5.0
    vertex 47.44792803844208 -30.05934110730025 -1.4099832412739487e-15
  endloop
endfacet
facet normal -0.999407486581518 0.03441911917543924 0.0
  outer loop
    vertex 47.464999905391124 -29.563635463241397 5.0
    vertex 47.44792803844208 -30.05934110730025 -1.4099832412739487e-15
    vertex 47.44792803844208 -30.05934110730025 5.0
  endloop
endfacet
facet normal -0.999407486581518 0.03441911917543924 0.0
  outer loop
    vertex 47.44792803844208 -30.05934110730025 -1.4099832412739487e-15
    vertex 47.464999905391124 -29.563635463241397 5.0
    vertex 47.464999905391124 -29.563635463241397 -1.4099832412739487e-15
  endloop
endfacet
facet normal -0.9742618258339913 -0.22541937521565786 0.0
  outer loop
    vertex 47.35319200113293 -29.080402055105825 5.0
    vertex 47.464999905391124 -29.563635463241397 -1.4099832412739487e-15
    vertex 47.464999905391124 -29.563635463241397 5.0
  endloop
endfacet
facet normal -0.9742618258339913 -0.22541937521565786 0.0
  outer loop
    vertex 47.464999905391124 -29.563635463241397 -1.4099832412739487e-15
    vertex 47.35319200113293 -29.080402055105825 5.0
    vertex 47.35319200113293 -29.080402055105825 -1.4099832412739487e-15
  endloop
endfacet
facet normal -0.8827218316996742 -0.46989591170893596 0.0
  outer loop
    vertex 47.120123849571414 -28.642572441077014 5.0
    vertex 47.35319200113293 -29.080402055105825 -1.4099832412739487e-15
    vertex 47.35319200113293 -29.080402055105825 5.0
  endloop
endfacet
facet normal -0.8827218316996742 -0.46989591170893596 0.0
  outer loop
    vertex 47.35319200113293 -29.080402055105825 -1.4099832412739487e-15
    vertex 47.120123849571414 -28.642572441077014 5.0
    vertex 47.120123849571414 -28.642572441077014 -1.4099832412739487e-15
  endloop
endfacet
facet normal -0.7310258035018191 -0.6823498183589702 0.0
  outer loop
    vertex 46.78167866007214 -28.279983985803366 5.0
    vertex 47.120123849571414 -28.642572441077014 -1.4099832412739487e-15
    vertex 47.120123849571414 -28.642572441077014 5.0
  endloop
endfacet
facet normal -0.7310258035018191 -0.6823498183589702 0.0
  outer loop
    vertex 47.120123849571414 -28.642572441077014 -1.4099832412739487e-15
    vertex 46.78167866007214 -28.279983985803366 5.0
    vertex 46.78167866007214 -28.279983985803366 -1.4099832412739487e-15
  endloop
endfacet
facet normal -0.5295115748725765 -0.8483027125242285 0.0
  outer loop
    vertex 46.78167866007214 -28.279983985803366 5.0
    vertex 46.36092091299238 -28.01734649330604 -1.4099832412739487e-15
    vertex 46.78167866007214 -28.279983985803366 -1.4099832412739487e-15
  endloop
endfacet
facet normal -0.5295115748725765 -0.8483027125242285 0.0
  outer loop
    vertex 46.36092091299238 -28.01734649330604 -1.4099832412739487e-15
    vertex 46.78167866007214 -28.279983985803366 5.0
    vertex 46.36092091299238 -28.01734649330604 5.0
  endloop
endfacet
facet normal -0.291912007475028 -0.9564451787174733 0.0
  outer loop
    vertex 46.36092091299238 -28.01734649330604 5.0
    vertex 45.88652455346054 -27.872558274669736 -1.4099832412739487e-15
    vertex 46.36092091299238 -28.01734649330604 -1.4099832412739487e-15
  endloop
endfacet
facet normal -0.291912007475028 -0.9564451787174733 0.0
  outer loop
    vertex 45.88652455346054 -27.872558274669736 -1.4099832412739487e-15
    vertex 46.36092091299238 -28.01734649330604 5.0
    vertex 45.88652455346054 -27.872558274669736 5.0
  endloop
endfacet
facet normal -2.255973186038322e-15 1.0 3.759955310063855e-14
  outer loop
    vertex 40.62383487963606 -34.446651433475886 7.999999999999893
    vertex 50.62383487963604 -34.44665143347575 4.999999999999904
    vertex 40.62383487963606 -34.44665143347575 4.999999999999904
  endloop
endfacet
facet normal -2.255973186038322e-15 1.0 3.759955310063855e-14
  outer loop
    vertex 50.62383487963604 -34.44665143347575 4.999999999999904
    vertex 40.62383487963606 -34.446651433475886 7.999999999999893
    vertex 50.62383487963604 -34.44665143347584 7.999999999999893
  endloop
endfacet
facet normal -1.0 -2.2559731860383225e-15 -6.785886688165171e-29
  outer loop
    vertex 50.62383487963604 -31.746651433475847 8.000000000000007
    vertex 50.62383487963604 -34.44665143347575 4.999999999999904
    vertex 50.62383487963604 -34.44665143347584 7.999999999999893
  endloop
endfacet
facet normal -1.0 -2.2559731860383225e-15 -6.785886688165171e-29
  outer loop
    vertex 50.62383487963604 -34.44665143347575 4.999999999999904
    vertex 50.62383487963604 -31.746651433475847 8.000000000000007
    vertex 50.62383487963604 -31.74665143347576 5.0
  endloop
endfacet
facet normal 1.0 2.2559731860383225e-15 1.0178830032247756e-28
  outer loop
    vertex 40.62383487963606 -34.44665143347575 4.999999999999904
    vertex 40.62383487963606 -31.746651433475893 8.000000000000007
    vertex 40.62383487963606 -34.446651433475886 7.999999999999893
  endloop
endfacet
facet normal 1.0 2.2559731860383225e-15 1.0178830032247756e-28
  outer loop
    vertex 40.62383487963606 -31.746651433475893 8.000000000000007
    vertex 40.62383487963606 -34.44665143347575 4.999999999999904
    vertex 40.62383487963606 -31.74665143347576 5.0
  endloop
endfacet
facet normal -1.199270218992176e-18 7.644683733027156e-18 -1.0
  outer loop
    vertex 40.62383487963606 -24.74665143347577 -1.7341181043023414e-17
    vertex 44.469755887237305 -28.200362463540394 -1.4099832412739487e-15
    vertex 40.62383487963606 -31.746651433475716 -1.7341181043023414e-17
  endloop
endfacet
facet normal -1.199270218992176e-18 7.644683733027156e-18 -1.0
  outer loop
    vertex 44.469755887237305 -28.200362463540394 -1.4099832412739487e-15
    vertex 40.62383487963606 -24.74665143347577 -1.7341181043023414e-17
    vertex 50.62383487963604 -24.746651433475765 -1.7341181043023414e-17
  endloop
endfacet
facet normal -1.199270218992176e-18 7.644683733027156e-18 -1.0
  outer loop
    vertex 40.62383487963606 -31.746651433475716 -1.7341181043023414e-17
    vertex 44.469755887237305 -28.200362463540394 -1.4099832412739487e-15
    vertex 44.10716743196365 -28.53880765303967 -1.4099832412739487e-15
  endloop
endfacet
facet normal -1.199270218992176e-18 7.644683733027156e-18 -1.0
  outer loop
    vertex 40.62383487963606 -31.746651433475716 -1.7341181043023414e-17
    vertex 44.10716743196365 -28.53880765303967 -1.4099832412739487e-15
    vertex 43.84452993946633 -28.959565400119438 -1.4099832412739487e-15
  endloop
endfacet
facet normal -1.199270218992176e-18 7.644683733027156e-18 -1.0
  outer loop
    vertex 40.62383487963606 -31.746651433475716 -1.7341181043023414e-17
    vertex 43.84452993946633 -28.959565400119438 -1.4099832412739487e-15
    vertex 43.699741720830026 -29.43396175965127 -1.4099832412739487e-15
  endloop
endfacet
facet normal -1.199270218992176e-18 7.644683733027156e-18 -1.0
  outer loop
    vertex 40.62383487963606 -31.746651433475716 -1.7341181043023414e-17
    vertex 43.699741720830026 -29.43396175965127 -1.4099832412739487e-15
    vertex 43.68266985388098 -29.929667403710123 -1.4099832412739487e-15
  endloop
endfacet
facet normal -1.199270218992176e-18 7.644683733027156e-18 -1.0
  outer loop
    vertex 44.469755887237305 -28.200362463540394 -1.4099832412739487e-15
    vertex 50.62383487963604 -24.746651433475765 -1.7341181043023414e-17
    vertex 44.90758550126612 -27.967294311978875 -1.4099832412739487e-15
  endloop
endfacet
facet normal -1.199270218992176e-18 7.644683733027156e-18 -1.0
  outer loop
    vertex 44.90758550126612 -27.967294311978875 -1.4099832412739487e-15
    vertex 50.62383487963604 -24.746651433475765 -1.7341181043023414e-17
    vertex 45.39081890940169 -27.85548640772069 -1.4099832412739487e-15
  endloop
endfacet
facet normal -1.199270218992176e-18 7.644683733027156e-18 -1.0
  outer loop
    vertex 45.39081890940169 -27.85548640772069 -1.4099832412739487e-15
    vertex 50.62383487963604 -24.746651433475765 -1.7341181043023414e-17
    vertex 45.88652455346054 -27.872558274669736 -1.4099832412739487e-15
  endloop
endfacet
facet normal -1.199270218992176e-18 7.644683733027156e-18 -1.0
  outer loop
    vertex 45.88652455346054 -27.872558274669736 -1.4099832412739487e-15
    vertex 50.62383487963604 -24.746651433475765 -1.7341181043023414e-17
    vertex 46.36092091299238 -28.01734649330604 -1.4099832412739487e-15
  endloop
endfacet
facet normal -1.199270218992176e-18 7.644683733027156e-18 -1.0
  outer loop
    vertex 46.36092091299238 -28.01734649330604 -1.4099832412739487e-15
    vertex 50.62383487963604 -24.746651433475765 -1.7341181043023414e-17
    vertex 46.78167866007214 -28.279983985803366 -1.4099832412739487e-15
  endloop
endfacet
facet normal -1.199270218992176e-18 7.644683733027156e-18 -1.0
  outer loop
    vertex 46.78167866007214 -28.279983985803366 -1.4099832412739487e-15
    vertex 50.62383487963604 -24.746651433475765 -1.7341181043023414e-17
    vertex 47.120123849571414 -28.642572441077014 -1.4099832412739487e-15
  endloop
endfacet
facet normal -1.199270218992176e-18 7.644683733027156e-18 -1.0
  outer loop
    vertex 47.120123849571414 -28.642572441077014 -1.4099832412739487e-15
    vertex 50.62383487963604 -24.746651433475765 -1.7341181043023414e-17
    vertex 47.35319200113293 -29.080402055105825 -1.4099832412739487e-15
  endloop
endfacet
facet normal -1.199270218992176e-18 7.644683733027156e-18 -1.0
  outer loop
    vertex 47.35319200113293 -29.080402055105825 -1.4099832412739487e-15
    vertex 50.62383487963604 -24.746651433475765 -1.7341181043023414e-17
    vertex 47.464999905391124 -29.563635463241397 -1.4099832412739487e-15
  endloop
endfacet
facet normal -1.199270218992176e-18 7.644683733027156e-18 -1.0
  outer loop
    vertex 40.62383487963606 -31.746651433475716 -1.7341181043023414e-17
    vertex 9.823834879636127 -37.24665143347582 -7.029721232599205e-17
    vertex 9.823834879636127 -31.74665143347576 -7.029721232599205e-17
  endloop
endfacet
facet normal -1.199270218992176e-18 7.644683733027156e-18 -1.0
  outer loop
    vertex 9.823834879636127 -37.24665143347582 -7.029721232599205e-17
    vertex 40.62383487963606 -31.746651433475716 -1.7341181043023414e-17
    vertex 82.82383487963604 -37.24665143347582 -1.5855726446426807e-16
  endloop
endfacet
facet normal -1.199270218992176e-18 7.644683733027156e-18 -1.0
  outer loop
    vertex 82.82383487963604 -37.24665143347582 -1.5855726446426807e-16
    vertex 40.62383487963606 -31.746651433475716 -1.7341181043023414e-17
    vertex 45.261145205811566 -31.620744592281785 -1.4099832412739487e-15
  endloop
endfacet
facet normal -1.199270218992176e-18 7.644683733027156e-18 -1.0
  outer loop
    vertex 45.261145205811566 -31.620744592281785 -1.4099832412739487e-15
    vertex 40.62383487963606 -31.746651433475716 -1.7341181043023414e-17
    vertex 44.78674884627973 -31.475956373645484 -1.4099832412739487e-15
  endloop
endfacet
facet normal -1.199270218992176e-18 7.644683733027156e-18 -1.0
  outer loop
    vertex 44.78674884627973 -31.475956373645484 -1.4099832412739487e-15
    vertex 40.62383487963606 -31.746651433475716 -1.7341181043023414e-17
    vertex 44.36599109919996 -31.213318881148155 -1.4099832412739487e-15
  endloop
endfacet
facet normal -1.199270218992176e-18 7.644683733027156e-18 -1.0
  outer loop
    vertex 44.36599109919996 -31.213318881148155 -1.4099832412739487e-15
    vertex 40.62383487963606 -31.746651433475716 -1.7341181043023414e-17
    vertex 44.027545909700684 -30.85073042587451 -1.4099832412739487e-15
  endloop
endfacet
facet normal -1.199270218992176e-18 7.644683733027156e-18 -1.0
  outer loop
    vertex 44.027545909700684 -30.85073042587451 -1.4099832412739487e-15
    vertex 40.62383487963606 -31.746651433475716 -1.7341181043023414e-17
    vertex 43.794477758139166 -30.412900811845695 -1.4099832412739487e-15
  endloop
endfacet
facet normal -1.199270218992176e-18 7.644683733027156e-18 -1.0
  outer loop
    vertex 43.794477758139166 -30.412900811845695 -1.4099832412739487e-15
    vertex 40.62383487963606 -31.746651433475716 -1.7341181043023414e-17
    vertex 43.68266985388098 -29.929667403710123 -1.4099832412739487e-15
  endloop
endfacet
facet normal -1.199270218992176e-18 7.644683733027156e-18 -1.0
  outer loop
    vertex 82.82383487963604 -37.24665143347582 -1.5855726446426807e-16
    vertex 45.261145205811566 -31.620744592281785 -1.4099832412739487e-15
    vertex 45.75685084987042 -31.63781645923083 -1.4099832412739487e-15
  endloop
endfacet
facet normal -1.199270218992176e-18 7.644683733027156e-18 -1.0
  outer loop
    vertex 82.82383487963604 -37.24665143347582 -1.5855726446426807e-16
    vertex 45.75685084987042 -31.63781645923083 -1.4099832412739487e-15
    vertex 46.240084258005986 -31.526008554972645 -1.4099832412739487e-15
  endloop
endfacet
facet normal -1.199270218992176e-18 7.644683733027156e-18 -1.0
  outer loop
    vertex 82.82383487963604 -37.24665143347582 -1.5855726446426807e-16
    vertex 46.240084258005986 -31.526008554972645 -1.4099832412739487e-15
    vertex 46.6779138720348 -31.292940403411126 -1.4099832412739487e-15
  endloop
endfacet
facet normal -1.199270218992176e-18 7.644683733027156e-18 -1.0
  outer loop
    vertex 82.82383487963604 -37.24665143347582 -1.5855726446426807e-16
    vertex 46.6779138720348 -31.292940403411126 -1.4099832412739487e-15
    vertex 50.62383487963604 -31.74665143347573 -1.7341181043023414e-17
  endloop
endfacet
facet normal -1.199270218992176e-18 7.644683733027156e-18 -1.0
  outer loop
    vertex 50.62383487963604 -31.74665143347573 -1.7341181043023414e-17
    vertex 46.6779138720348 -31.292940403411126 -1.4099832412739487e-15
    vertex 47.040502327308445 -30.95449521391185 -1.4099832412739487e-15
  endloop
endfacet
facet normal -1.199270218992176e-18 7.644683733027156e-18 -1.0
  outer loop
    vertex 50.62383487963604 -31.74665143347573 -1.7341181043023414e-17
    vertex 47.040502327308445 -30.95449521391185 -1.4099832412739487e-15
    vertex 47.30313981980577 -30.533737466832083 -1.4099832412739487e-15
  endloop
endfacet
facet normal -1.199270218992176e-18 7.644683733027156e-18 -1.0
  outer loop
    vertex 50.62383487963604 -31.74665143347573 -1.7341181043023414e-17
    vertex 47.30313981980577 -30.533737466832083 -1.4099832412739487e-15
    vertex 47.44792803844208 -30.05934110730025 -1.4099832412739487e-15
  endloop
endfacet
facet normal -1.199270218992176e-18 7.644683733027156e-18 -1.0
  outer loop
    vertex 50.62383487963604 -31.74665143347573 -1.7341181043023414e-17
    vertex 47.44792803844208 -30.05934110730025 -1.4099832412739487e-15
    vertex 47.464999905391124 -29.563635463241397 -1.4099832412739487e-15
  endloop
endfacet
facet normal -1.199270218992176e-18 7.644683733027156e-18 -1.0
  outer loop
    vertex 50.62383487963604 -31.74665143347573 -1.7341181043023414e-17
    vertex 47.464999905391124 -29.563635463241397 -1.4099832412739487e-15
    vertex 50.62383487963604 -24.746651433475765 -1.7341181043023414e-17
  endloop
endfacet
facet normal -1.199270218992176e-18 7.644683733027156e-18 -1.0
  outer loop
    vertex 82.82383487963604 -37.24665143347582 -1.5855726446426807e-16
    vertex 50.62383487963604 -31.74665143347573 -1.7341181043023414e-17
    vertex 82.82383487963605 -31.746651433475712 -1.5855726446426807e-16
  endloop
endfacet
endsolid DUALARPCB
